<?xml version="1.0" encoding="utf-8"?>
<!-- Generator: Adobe Illustrator 18.1.1, SVG Export Plug-In . SVG Version: 6.00 Build 0)  -->
<!DOCTYPE svg PUBLIC "-//W3C//DTD SVG 1.1//EN" "http://www.w3.org/Graphics/SVG/1.1/DTD/svg11.dtd">
<svg version="1.1" id="Layer_1" xmlns="http://www.w3.org/2000/svg" xmlns:xlink="http://www.w3.org/1999/xlink" x="0px" y="0px"
	 viewBox="0 0 201.5 230" style="enable-background:new 0 0 201.5 230;" xml:space="preserve">
<style type="text/css">
	.st0{fill:#51392B;}
	.st1{fill:#3A261C;}
	.st2{fill:#3F2A20;}
	.st3{fill:#0384B6;}
	.st4{fill:#FFFFFF;}
	.st5{opacity:0.05;}
	.st6{fill:#E17C4B;}
	.st7{fill:#F2EA65;}
	.st8{fill:#DCC537;}
	.st9{fill:#F6966B;}
	.st10{fill:#653A31;}
	.st11{clip-path:url(#XMLID_187_);fill:#3A1A1F;}
	.st12{fill:#FF9766;}
	.st13{fill:#E37D4C;}
	.st14{clip-path:url(#XMLID_188_);fill:#FF9869;}
	.st15{fill:none;stroke:#FFFFFF;stroke-width:28.12596;stroke-linecap:round;stroke-miterlimit:10;}
	.st16{fill:none;stroke:#E37D4C;stroke-width:4.01799;stroke-linecap:round;stroke-miterlimit:10;}
	.st17{fill:none;stroke:#E6E6E6;stroke-width:2;stroke-linecap:round;stroke-miterlimit:10;}
	.st18{fill:#FDC4B3;}
	.st19{fill:#D36400;}
	.st20{fill:#ED7D0F;}
	.st21{fill:#E1A299;}
	.st22{clip-path:url(#XMLID_447_);fill:#FDC4B3;}
	.st23{fill:none;stroke:#775252;stroke-width:4.96456;stroke-linecap:round;stroke-miterlimit:10;}
	.st24{fill:#FFA0A0;}
	.st25{fill:none;stroke:#CC680E;stroke-width:4;stroke-linecap:round;stroke-miterlimit:10;}
	.st26{fill:#230F13;}
	.st27{fill:#AF675B;}
	.st28{fill:#874C46;}
	.st29{clip-path:url(#XMLID_456_);fill:#AF675B;}
	.st30{fill:none;stroke:#000000;stroke-width:6.21931;stroke-miterlimit:10;}
	.st31{fill:none;stroke:#874C46;stroke-width:5;stroke-linecap:round;stroke-miterlimit:10;}
	.st32{fill:none;stroke:#000000;stroke-width:4.59506;stroke-miterlimit:10;}
	.st33{fill:#B25C4B;}
	.st34{fill:#FFFFFF;stroke:#000000;stroke-width:5;stroke-miterlimit:10;}
	.st35{fill:#331814;}
	.st36{clip-path:url(#XMLID_457_);fill:#FF9766;}
	.st37{fill:none;stroke:#E37D4C;stroke-width:8.23793;stroke-linecap:round;stroke-miterlimit:10;}
	.st38{fill:#4C3117;}
	.st39{fill:none;stroke:#E37D4C;stroke-width:5.76655;stroke-linecap:round;stroke-miterlimit:10;}
	.st40{clip-path:url(#XMLID_477_);fill:#FDC4B3;}
	.st41{fill:none;stroke:#000000;stroke-width:3.45448;stroke-miterlimit:10;}
	.st42{fill:none;stroke:#874C46;stroke-width:2.77722;stroke-linecap:round;stroke-miterlimit:10;}
	.st43{fill:none;stroke:#000000;stroke-width:2.5523;stroke-miterlimit:10;}
	.st44{fill:#FFFFFF;stroke:#000000;stroke-width:2.77722;stroke-miterlimit:10;}
	.st45{clip-path:url(#XMLID_483_);fill:#3A1A1F;}
	.st46{clip-path:url(#XMLID_484_);fill:#FF9869;}
	.st47{fill:none;stroke:#FFFFFF;stroke-width:14.9718;stroke-linecap:round;stroke-miterlimit:10;}
	.st48{fill:none;stroke:#E37D4C;stroke-width:2.13883;stroke-linecap:round;stroke-miterlimit:10;}
	.st49{fill:none;stroke:#E6E6E6;stroke-width:1.06462;stroke-linecap:round;stroke-miterlimit:10;}
	.st50{clip-path:url(#XMLID_485_);fill:#FDC4B3;}
	.st51{fill:none;stroke:#775252;stroke-width:2.64269;stroke-linecap:round;stroke-miterlimit:10;}
	.st52{fill:none;stroke:#CC680E;stroke-width:2.12925;stroke-linecap:round;stroke-miterlimit:10;}
	.st53{clip-path:url(#XMLID_486_);fill:#FDC4B3;}
	.st54{clip-path:url(#XMLID_487_);fill:#FDC4B3;}
	.st55{clip-path:url(#XMLID_488_);fill:#FF9766;}
	.st56{fill:none;stroke:#E37D4C;stroke-width:4.78016;stroke-linecap:round;stroke-miterlimit:10;}
	.st57{fill:none;stroke:#E37D4C;stroke-width:3.34611;stroke-linecap:round;stroke-miterlimit:10;}
	.st58{clip-path:url(#XMLID_489_);fill:#FDC4B3;}
	.st59{clip-path:url(#XMLID_490_);fill:#FF9766;}
	.st60{fill:#653B32;}
	.st61{fill:#3A1A1F;}
	.st62{fill:none;}
	.st63{fill:#F69468;}
	.st64{fill:none;stroke:#FFFFFF;stroke-width:15.05307;stroke-linecap:round;stroke-miterlimit:10;}
	.st65{fill:none;stroke:#E17C4B;stroke-width:2.15044;stroke-linecap:round;stroke-miterlimit:10;}
	.st66{fill:none;stroke:#E5E5E4;stroke-width:1.0704;stroke-linecap:round;stroke-miterlimit:10;}
	.st67{fill:none;stroke:#231F20;stroke-width:2.65704;stroke-linecap:round;stroke-miterlimit:10;}
	.st68{fill:#3D2A1D;}
	.st69{fill:#281A12;}
	.st70{fill:none;stroke:#D73B3B;stroke-width:5.32281;stroke-linecap:round;stroke-miterlimit:10;}
	.st71{opacity:0.3;fill:none;stroke:#603A17;stroke-width:5.32281;stroke-linecap:round;stroke-miterlimit:10;}
	.st72{opacity:0.5;fill:none;stroke:#E17C4B;stroke-width:2.15044;stroke-linecap:round;stroke-miterlimit:10;}
	.st73{fill:#A96733;}
	.st74{fill:#08101E;}
	.st75{fill:#D07A4B;}
	.st76{fill:none;stroke:#915329;stroke-width:2.15044;stroke-linecap:round;stroke-miterlimit:10;}
	.st77{fill:#363B44;}
	.st78{opacity:0.5;fill:none;stroke:#A96733;stroke-width:2.15044;stroke-linecap:round;stroke-miterlimit:10;}
	.st79{fill:#7C544B;}
	.st80{fill:#A86052;}
	.st81{opacity:0.6;fill:none;stroke:#1A1A1A;stroke-width:2.15044;stroke-linecap:round;stroke-miterlimit:10;}
	.st82{opacity:0.3;fill:none;stroke:#1A1A1A;stroke-width:2.15044;stroke-linecap:round;stroke-miterlimit:10;}
	.st83{fill:#001334;}
	.st84{fill:#0B152E;}
	.st85{fill:#3A211E;}
	.st86{opacity:0.5;fill:#E17C4B;}
	.st87{fill:#ED977A;}
	.st88{fill:#C16008;}
	.st89{fill:#F7BDA9;}
	.st90{fill:#D37F67;}
	.st91{fill:#ED7D0E;}
	.st92{fill:#915329;}
	.st93{fill:#E6E6E6;}
	.st94{fill:#231F20;}
	.st95{clip-path:url(#SVGID_2_);}
	.st96{fill:#057A9E;}
	.st97{fill:none;stroke:#057A9E;stroke-width:2;stroke-miterlimit:10;}
	.st98{fill:#3FA9F5;}
	.st99{fill:#3094D1;}
	.st100{fill:#2B7DAF;}
	.st101{fill:#231F20;stroke:#2B7DAF;stroke-miterlimit:10;}
	.st102{fill:#BA6D5D;}
	.st103{fill:#AA5D50;}
	.st104{fill:#683818;}
</style>
<g id="XMLID_584_">
	<path id="XMLID_481_" class="st6" d="M117.64681,189.40826H86.20648l-3.02637,23.3074c0,0,3.39261,5.38171,17.79265,5.38171
		s19.70043-5.38171,19.70043-5.38171L117.64681,189.40826z"/>
	<polygon id="XMLID_480_" class="st8" points="27.24566,74.25126 27.24566,134.28885 174.14893,134.28885 174.14893,70.45984 	"/>
	<path id="XMLID_479_" class="st9" d="M180.91751,126.99597c-0.5407-8.3489-7.84576-14.66238-16.21202-14.66238h-0.56853v-4.04128
		c0-35.40423-28.40277-64.10499-63.43951-64.10499h-0.00019c-35.03683,0-63.4397,28.70076-63.4397,64.10499v4.04128h-0.463
		c-8.36634,0-15.67151,6.31348-16.21201,14.66238c-0.59226,9.14859,6.65285,16.75357,15.67399,16.75357h1.00102v0.51295
		c0,35.40422,28.0893,56.86263,63.4397,62.34677h0.00019c33.80003-3.71106,63.43951-26.94255,63.43951-62.34677v-0.51295h1.10655
		C174.26466,143.74954,181.50967,136.14456,180.91751,126.99597z"/>
	<path id="XMLID_478_" class="st6" d="M180.91751,126.99597c-0.5407-8.3489-7.84576-14.66238-16.21202-14.66238h-0.56853v-4.04128
		c0-35.40423-28.40277-64.10499-63.43951-64.10499h-0.00019c-1.56736,0-3.11584,0.07731-4.65442,0.19017
		c32.86082,2.41091,57.22291,30.09425,57.22291,63.91481v4.04128v31.41595v0.51295c0,33.53319-28.36402,57.77602-57.22291,62.16794
		c1.53857,0.1062,3.08706,0.17883,4.65442,0.17883h0.00019c35.25075-3.71106,63.43951-26.94255,63.43951-62.34677v-0.51295h1.10655
		C174.26466,143.74954,181.50967,136.14456,180.91751,126.99597z"/>
	<path class="st6" d="M101.91146,155.45053h-3.7858c-4.61209,0-8.36415-3.75206-8.36415-8.36357
		c0-4.61229,3.75206-8.36435,8.36415-8.36435c0.92753,0,1.67928,0.75194,1.67928,1.67928s-0.75175,1.67928-1.67928,1.67928
		c-2.76009,0-5.0056,2.2459-5.0056,5.0058c0,2.75989,2.24551,5.00502,5.0056,5.00502h3.7858
		c0.92753,0,1.67928,0.75194,1.67928,1.67928S102.83899,155.45053,101.91146,155.45053z"/>
	<path class="st6" d="M110.33777,179.6086L110.33777,179.6086H93.36905c-0.92753,0-1.67928-0.75194-1.67928-1.67928
		s0.75175-1.67928,1.67928-1.67928h16.95251c1.45431,0,2.6375-1.18358,2.6375-2.63788c0-0.70465-0.27435-1.36661-0.77234-1.86459
		c-0.65585-0.65508-0.65623-1.71892-0.00057-2.37477s1.71893-0.65585,2.37497,0c1.13267,1.13171,1.75648,2.63788,1.75648,4.23936
		C116.3176,176.91353,113.63645,179.59944,110.33777,179.6086L110.33777,179.6086z"/>
	<path id="XMLID_185_" class="st7" d="M171.325,69.46121c0-31.37518-31.62109-57.55853-70.6277-57.55853
		S30.06959,38.08603,30.06959,69.46121c0,25.71561,3.29264,38.02917,3.29264,38.02917s51.44043-32.46635,67.33507-32.46635
		c18.67777,0,67.33507,32.46635,67.33507,32.46635S171.325,84.5889,171.325,69.46121z"/>
	<path id="XMLID_184_" class="st7" d="M163.59081,69.46121c0-31.37518-30.74008-57.55853-68.65989-57.55853
		S26.27103,38.08603,26.27103,69.46121c0,25.71561,1.19585,38.02917,1.19585,38.02917s52.01225-32.46635,67.46404-32.46635
		c18.15737,0,65.45899,29.16451,65.45899,29.16451S163.59081,84.5889,163.59081,69.46121z"/>
	<polygon id="XMLID_183_" class="st7" points="168.03175,66.67102 33.32375,66.67102 33.32375,107.49038 54.00539,107.49038 
		58.0964,93.31197 62.44502,102.60316 123.56667,102.60316 128.80699,89.15456 134.81761,107.49038 143.258,107.49038 
		147.86153,97.48462 153.48753,107.49038 168.03175,107.49038 	"/>
	<polygon id="XMLID_182_" class="st8" points="117.14935,102.60316 128.80699,89.15456 123.55531,102.60316 	"/>
	<path id="XMLID_181_" class="st8" d="M110.28893,30.0379c0,0,13.70312,1.70598,19.7832,6.53959
		c6.08009,4.83362,15.61833,18.48147,15.61833,18.48147"/>
	<path id="XMLID_180_" class="st8" d="M85.06979,43.92255c0,0-7.98056,12.28652-8.74177,20.45835
		c-0.76122,8.17182,2.18021,25.03858,2.18021,25.03858"/>
	<g id="XMLID_178_">
		<path id="XMLID_179_" class="st8" d="M105.60885,11.90265c-0.967,0-1.92579,0.02843-2.88325,0.06216
			c36.58102,1.28792,68.34213,31.34148,68.34213,54.70621c0,11.50392-1.30826,33.81441-2.19518,40.8194
			c3.30173,2.15965,5.39607,0,5.39607,0s0.00002-22.90154,0.00002-38.02921
			C174.26865,38.08599,143.52866,11.90265,105.60885,11.90265z"/>
	</g>
	<path class="st86" d="M36.12196,136.23116c-4.80141,0-8.70752-3.90611-8.70752-8.70752c0-4.80141,3.90611-8.70752,8.70752-8.70752
		c0.92753,0,1.67928,0.75194,1.67928,1.67928s-0.75175,1.67928-1.67928,1.67928c-2.94941,0-5.34897,2.39918-5.34897,5.34897
		c0,2.94978,2.39956,5.34897,5.34897,5.34897c0.92753,0,1.67928,0.75194,1.67928,1.67928S37.04948,136.23116,36.12196,136.23116z"/>
	<g id="XMLID_189_">
		<circle id="XMLID_190_" cx="131.5" cy="122.71362" r="8.94726"/>
		<circle id="XMLID_505_" class="st4" cx="128.71338" cy="120.07837" r="2.71072"/>
	</g>
	<g id="XMLID_191_">
		<circle id="XMLID_462_" cx="67.25488" cy="122.71362" r="8.94726"/>
		<circle id="XMLID_452_" class="st4" cx="64.46826" cy="120.07837" r="2.71072"/>
	</g>
</g>
</svg>
