<?xml version="1.0" encoding="utf-8"?>
<!-- Generator: Adobe Illustrator 18.1.1, SVG Export Plug-In . SVG Version: 6.00 Build 0)  -->
<!DOCTYPE svg PUBLIC "-//W3C//DTD SVG 1.1//EN" "http://www.w3.org/Graphics/SVG/1.1/DTD/svg11.dtd">
<svg version="1.1" id="Layer_1" xmlns="http://www.w3.org/2000/svg" xmlns:xlink="http://www.w3.org/1999/xlink" x="0px" y="0px"
	 viewBox="0 0 201.5 230" style="enable-background:new 0 0 201.5 230;" xml:space="preserve">
<style type="text/css">
	.st0{fill:#51392B;}
	.st1{fill:#3A261C;}
	.st2{fill:#3F2A20;}
	.st3{fill:#0384B6;}
	.st4{fill:#FFFFFF;}
	.st5{opacity:0.05;}
	.st6{fill:#E17C4B;}
	.st7{fill:#F2EA65;}
	.st8{fill:#DCC537;}
	.st9{fill:#F6966B;}
	.st10{fill:#653A31;}
	.st11{clip-path:url(#XMLID_187_);fill:#3A1A1F;}
	.st12{fill:#FF9766;}
	.st13{fill:#E37D4C;}
	.st14{clip-path:url(#XMLID_188_);fill:#FF9869;}
	.st15{fill:none;stroke:#FFFFFF;stroke-width:28.12596;stroke-linecap:round;stroke-miterlimit:10;}
	.st16{fill:none;stroke:#E37D4C;stroke-width:4.01799;stroke-linecap:round;stroke-miterlimit:10;}
	.st17{fill:none;stroke:#E6E6E6;stroke-width:2;stroke-linecap:round;stroke-miterlimit:10;}
	.st18{fill:#FDC4B3;}
	.st19{fill:#D36400;}
	.st20{fill:#ED7D0F;}
	.st21{fill:#E1A299;}
	.st22{clip-path:url(#XMLID_447_);fill:#FDC4B3;}
	.st23{fill:none;stroke:#775252;stroke-width:4.96456;stroke-linecap:round;stroke-miterlimit:10;}
	.st24{fill:#FFA0A0;}
	.st25{fill:none;stroke:#CC680E;stroke-width:4;stroke-linecap:round;stroke-miterlimit:10;}
	.st26{fill:#230F13;}
	.st27{fill:#AF675B;}
	.st28{fill:#874C46;}
	.st29{clip-path:url(#XMLID_456_);fill:#AF675B;}
	.st30{fill:none;stroke:#000000;stroke-width:6.21931;stroke-miterlimit:10;}
	.st31{fill:none;stroke:#874C46;stroke-width:5;stroke-linecap:round;stroke-miterlimit:10;}
	.st32{fill:none;stroke:#000000;stroke-width:4.59506;stroke-miterlimit:10;}
	.st33{fill:#B25C4B;}
	.st34{fill:#FFFFFF;stroke:#000000;stroke-width:5;stroke-miterlimit:10;}
	.st35{fill:#331814;}
	.st36{clip-path:url(#XMLID_457_);fill:#FF9766;}
	.st37{fill:none;stroke:#E37D4C;stroke-width:8.23793;stroke-linecap:round;stroke-miterlimit:10;}
	.st38{fill:#4C3117;}
	.st39{fill:none;stroke:#E37D4C;stroke-width:5.76655;stroke-linecap:round;stroke-miterlimit:10;}
	.st40{clip-path:url(#XMLID_477_);fill:#FDC4B3;}
	.st41{fill:none;stroke:#000000;stroke-width:3.45448;stroke-miterlimit:10;}
	.st42{fill:none;stroke:#874C46;stroke-width:2.77722;stroke-linecap:round;stroke-miterlimit:10;}
	.st43{fill:none;stroke:#000000;stroke-width:2.5523;stroke-miterlimit:10;}
	.st44{fill:#FFFFFF;stroke:#000000;stroke-width:2.77722;stroke-miterlimit:10;}
	.st45{clip-path:url(#XMLID_483_);fill:#3A1A1F;}
	.st46{clip-path:url(#XMLID_484_);fill:#FF9869;}
	.st47{fill:none;stroke:#FFFFFF;stroke-width:14.9718;stroke-linecap:round;stroke-miterlimit:10;}
	.st48{fill:none;stroke:#E37D4C;stroke-width:2.13883;stroke-linecap:round;stroke-miterlimit:10;}
	.st49{fill:none;stroke:#E6E6E6;stroke-width:1.06462;stroke-linecap:round;stroke-miterlimit:10;}
	.st50{clip-path:url(#XMLID_485_);fill:#FDC4B3;}
	.st51{fill:none;stroke:#775252;stroke-width:2.64269;stroke-linecap:round;stroke-miterlimit:10;}
	.st52{fill:none;stroke:#CC680E;stroke-width:2.12925;stroke-linecap:round;stroke-miterlimit:10;}
	.st53{clip-path:url(#XMLID_486_);fill:#FDC4B3;}
	.st54{clip-path:url(#XMLID_487_);fill:#FDC4B3;}
	.st55{clip-path:url(#XMLID_488_);fill:#FF9766;}
	.st56{fill:none;stroke:#E37D4C;stroke-width:4.78016;stroke-linecap:round;stroke-miterlimit:10;}
	.st57{fill:none;stroke:#E37D4C;stroke-width:3.34611;stroke-linecap:round;stroke-miterlimit:10;}
	.st58{clip-path:url(#XMLID_489_);fill:#FDC4B3;}
	.st59{clip-path:url(#XMLID_490_);fill:#FF9766;}
	.st60{fill:#653B32;}
	.st61{fill:#3A1A1F;}
	.st62{fill:none;}
	.st63{fill:#F69468;}
	.st64{fill:none;stroke:#FFFFFF;stroke-width:15.05307;stroke-linecap:round;stroke-miterlimit:10;}
	.st65{fill:none;stroke:#E17C4B;stroke-width:2.15044;stroke-linecap:round;stroke-miterlimit:10;}
	.st66{fill:none;stroke:#E5E5E4;stroke-width:1.0704;stroke-linecap:round;stroke-miterlimit:10;}
	.st67{fill:none;stroke:#231F20;stroke-width:2.65704;stroke-linecap:round;stroke-miterlimit:10;}
	.st68{fill:#3D2A1D;}
	.st69{fill:#281A12;}
	.st70{fill:none;stroke:#D73B3B;stroke-width:5.32281;stroke-linecap:round;stroke-miterlimit:10;}
	.st71{opacity:0.3;fill:none;stroke:#603A17;stroke-width:5.32281;stroke-linecap:round;stroke-miterlimit:10;}
	.st72{opacity:0.5;fill:none;stroke:#E17C4B;stroke-width:2.15044;stroke-linecap:round;stroke-miterlimit:10;}
	.st73{fill:#A96733;}
	.st74{fill:#08101E;}
	.st75{fill:#D07A4B;}
	.st76{fill:none;stroke:#915329;stroke-width:2.15044;stroke-linecap:round;stroke-miterlimit:10;}
	.st77{fill:#363B44;}
	.st78{opacity:0.5;fill:none;stroke:#A96733;stroke-width:2.15044;stroke-linecap:round;stroke-miterlimit:10;}
	.st79{fill:#7C544B;}
	.st80{fill:#A86052;}
	.st81{opacity:0.6;fill:none;stroke:#1A1A1A;stroke-width:2.15044;stroke-linecap:round;stroke-miterlimit:10;}
	.st82{opacity:0.3;fill:none;stroke:#1A1A1A;stroke-width:2.15044;stroke-linecap:round;stroke-miterlimit:10;}
	.st83{fill:#001334;}
	.st84{fill:#0B152E;}
	.st85{fill:#3A211E;}
	.st86{opacity:0.5;fill:#E17C4B;}
	.st87{fill:#ED977A;}
	.st88{fill:#C16008;}
	.st89{fill:#F7BDA9;}
	.st90{fill:#D37F67;}
	.st91{fill:#ED7D0E;}
	.st92{fill:#915329;}
	.st93{fill:#E6E6E6;}
	.st94{fill:#231F20;}
	.st95{clip-path:url(#SVGID_2_);}
	.st96{fill:#057A9E;}
	.st97{fill:none;stroke:#057A9E;stroke-width:2;stroke-miterlimit:10;}
	.st98{fill:#3FA9F5;}
	.st99{fill:#3094D1;}
	.st100{fill:#2B7DAF;}
	.st101{fill:#231F20;stroke:#2B7DAF;stroke-miterlimit:10;}
	.st102{fill:#BA6D5D;}
	.st103{fill:#AA5D50;}
	.st104{fill:#683818;}
</style>
<circle id="XMLID_580_" class="st2" cx="148.81543" cy="179.23779" r="33.6998"/>
<g id="XMLID_476_">
	<path id="XMLID_605_" class="st6" d="M117.64559,189.38625H82.76791l-3.35725,25.85558c0,0,3.76352,5.97009,19.7379,5.97009
		s21.85426-5.97009,21.85426-5.97009L117.64559,189.38625z"/>
	<path id="XMLID_603_" class="st9" d="M187.8336,120.15047c-0.59981-9.26168-8.70354-16.26541-17.98445-16.26541h-0.63069v-4.48311
		c0-39.27494-31.50801-71.11353-70.37529-71.11353h-0.00021c-38.86739,0-70.37551,31.83859-70.37551,71.11353v4.48311h-0.51362
		c-9.28103,0-17.38486,7.00373-17.98446,16.26541c-0.65702,10.1488,7.3802,18.58521,17.38761,18.58521h1.11047v0.56905
		c0,39.27493,31.50812,69.16309,70.37551,69.16309h0.00021c38.86728,0,70.37529-29.88815,70.37529-69.16309v-0.56905h1.22754
		C180.45341,138.73569,188.49052,130.29927,187.8336,120.15047z"/>
	<path id="XMLID_601_" class="st6" d="M187.8336,120.15047c-0.59981-9.26168-8.70354-16.26541-17.98445-16.26541h-0.63069v-4.48311
		c0-39.27494-31.50801-71.11353-70.37529-71.11353h-0.00021c-1.73872,0-3.4565,0.08576-5.16328,0.21097
		c36.45346,2.67449,63.47905,33.38442,63.47905,70.90256v4.48311v34.85062v0.56905c0,37.19934-31.64628,66.76848-63.47905,68.96471
		c1.70679,0.1178,3.42457,0.19838,5.16328,0.19838h0.00021c38.86728,0,70.37529-29.88815,70.37529-69.16309v-0.56905h1.22754
		C180.45341,138.73569,188.49052,130.29927,187.8336,120.15047z"/>
	<path class="st6" d="M103.2742,141.32043h-5.31493c-6.20195,0-11.24785-5.04549-11.24785-11.24742
		c0-6.20195,5.0459-11.24743,11.24785-11.24743c1.02872,0,1.86287,0.83414,1.86287,1.86287
		c0,1.02872-0.83414,1.86287-1.86287,1.86287c-4.14789,0-7.52211,3.37465-7.52211,7.52169
		c0,4.14703,3.37422,7.52168,7.52211,7.52168h5.31493c1.02872,0,1.86287,0.83415,1.86287,1.86287
		S104.30293,141.32043,103.2742,141.32043z"/>
	<path class="st6" d="M27.20751,130.39532c-5.32635,0-9.6595-4.33315-9.6595-9.6595s4.33315-9.6595,9.6595-9.6595
		c1.02872,0,1.86287,0.83414,1.86287,1.86287c0,1.02872-0.83415,1.86286-1.86287,1.86286
		c-3.27186,0-5.93377,2.66148-5.93377,5.93377s2.66191,5.93377,5.93377,5.93377c1.02872,0,1.86287,0.83414,1.86287,1.86286
		C29.07038,129.56119,28.23623,130.39532,27.20751,130.39532z"/>
	<path class="st4" d="M98.89282,179.67419c-10.14891,0-19.56646-3.01764-25.83778-8.27969
		c-3.11705-2.61496-3.52354-7.26198-0.90859-10.3786c2.61453-3.11746,7.26155-3.52354,10.37859-0.90858
		c3.55315,2.98126,9.8249,4.83313,16.36777,4.83313c6.5433,0,12.81504-1.85187,16.36736-4.83313
		c3.1162-2.61749,7.76321-2.20973,10.37901,0.90691c2.61537,3.11662,2.2093,7.76364-0.90733,10.37859
		C118.46055,176.6557,109.04258,179.67419,98.89282,179.67419z"/>
	<path class="st13" d="M61.48022,160.24013c-0.2631,0-0.53044-0.05667-0.78466-0.17596
		c-0.92636-0.43314-1.32609-1.53632-0.89209-2.46352c2.27909-4.86697,6.29373-8.60878,11.30453-10.53595
		c0.9547-0.36885,2.02699,0.10829,2.39415,1.06425c0.36758,0.95512-0.10913,2.02699-1.06425,2.39415
		c-4.05271,1.55916-7.43456,4.71132-9.27839,8.6494C62.84438,159.84506,62.1769,160.24013,61.48022,160.24013z"/>
	<path class="st13" d="M137.89038,160.24013c-0.69667,0-1.36415-0.39507-1.67929-1.06763
		c-1.84425-3.93808-5.22609-7.09108-9.27838-8.6494c-0.95512-0.36716-1.43184-1.43903-1.06425-2.39415
		c0.36716-0.95596,1.43945-1.43311,2.39415-1.06425c5.00995,1.92632,9.02458,5.66814,11.30453,10.53595
		c0.43399,0.92636,0.03468,2.02953-0.89211,2.46352C138.42082,160.18346,138.15349,160.24013,137.89038,160.24013z"/>
	<path class="st93" d="M80.04884,168.5266c-0.14889,0-0.30032-0.03554-0.44034-0.11252
		c-2.83363-1.54308-7.0712-4.54465-8.63036-5.85255c-0.39042-0.32739-0.44118-0.90858-0.1142-1.29944
		c0.32782-0.39084,0.90986-0.4416,1.29944-0.11336c1.33116,1.11586,5.50401,4.10812,8.32749,5.64613
		c0.44711,0.24364,0.6125,0.80368,0.36885,1.25037C80.69221,168.35316,80.37582,168.5266,80.04884,168.5266z"/>
	<path class="st93" d="M115.11636,169.93517c-0.33755,0-0.66241-0.18527-0.82442-0.50758
		c-0.22926-0.4543-0.0461-1.00928,0.40862-1.23854c5.46848-2.75284,9.1003-4.90419,10.7944-6.39398
		c0.38366-0.33586,0.96612-0.29779,1.30198,0.08376c0.33628,0.38239,0.29864,0.96527-0.08376,1.30197
		c-1.8121,1.593-5.57465,3.83234-11.18271,6.65625C115.39722,169.90387,115.25552,169.93517,115.11636,169.93517z"/>
	<path class="st94" d="M69.58776,111.22691c-1.13997,0-2.1302-0.84683-2.27994-2.00753
		c-0.04188-0.30456-1.13067-7.67312-7.7095-7.67312s-7.66762,7.36856-7.71077,7.68243
		c-0.17258,1.25545-1.32778,2.13866-2.58492,1.97285c-1.25629-0.1675-2.14162-1.31382-1.97961-2.57096
		c0.52155-4.04298,3.75831-11.68819,12.2753-11.68819s11.75375,7.6452,12.2753,11.68819
		c0.16243,1.26052-0.72755,2.41445-1.98849,2.57688C69.7853,111.22099,69.6859,111.22691,69.58776,111.22691z"/>
	<path class="st94" d="M142.23961,111.22691c-1.13997,0-2.1302-0.84683-2.27994-2.00753
		c-0.04187-0.30456-1.13066-7.67312-7.7095-7.67312c-6.57883,0-7.66762,7.36856-7.71076,7.68243
		c-0.173,1.25545-1.32609,2.13866-2.58492,1.97285c-1.25629-0.1675-2.14162-1.31382-1.97961-2.57096
		c0.52155-4.04298,3.75831-11.68819,12.2753-11.68819s11.75375,7.6452,12.27531,11.68819
		c0.16243,1.26052-0.72755,2.41445-1.98851,2.57688C142.43715,111.22099,142.33775,111.22691,142.23961,111.22691z"/>
</g>
<path id="XMLID_579_" class="st0" d="M169.77977,107.54736c0-11.58369-18.64638-32.05215-18.64638-32.05215l1.53772-17.04412
	l-13.6353,4.92386l-3.78758-16.2866l-15.15033,8.23339l-9.97777-12.02097L99.62376,55.09344L88.16709,44.43703L77.69411,58.09605
	l-17.78063-6.84137l-4.01443,14.76749l-13.06783-3.02599l1.89379,14.01405c0,0-15.25727,21.00892-15.25727,30.53712
	c0,0-26.51341-98.75933,70.15602-98.75933S169.77977,107.54736,169.77977,107.54736z"/>
</svg>
