<?xml version="1.0" encoding="utf-8"?>
<!-- Generator: Adobe Illustrator 18.1.1, SVG Export Plug-In . SVG Version: 6.00 Build 0)  -->
<!DOCTYPE svg PUBLIC "-//W3C//DTD SVG 1.1//EN" "http://www.w3.org/Graphics/SVG/1.1/DTD/svg11.dtd">
<svg version="1.1" id="Layer_1" xmlns="http://www.w3.org/2000/svg" xmlns:xlink="http://www.w3.org/1999/xlink" x="0px" y="0px"
	 viewBox="0 0 201.5 230" style="enable-background:new 0 0 201.5 230;" xml:space="preserve">
<style type="text/css">
	.st0{fill:#51392B;}
	.st1{fill:#3A261C;}
	.st2{fill:#3F2A20;}
	.st3{fill:#0384B6;}
	.st4{fill:#FFFFFF;}
	.st5{opacity:0.05;}
	.st6{fill:#E17C4B;}
	.st7{fill:#F2EA65;}
	.st8{fill:#DCC537;}
	.st9{fill:#F6966B;}
	.st10{fill:#653A31;}
	.st11{clip-path:url(#XMLID_187_);fill:#3A1A1F;}
	.st12{fill:#FF9766;}
	.st13{fill:#E37D4C;}
	.st14{clip-path:url(#XMLID_188_);fill:#FF9869;}
	.st15{fill:none;stroke:#FFFFFF;stroke-width:28.12596;stroke-linecap:round;stroke-miterlimit:10;}
	.st16{fill:none;stroke:#E37D4C;stroke-width:4.01799;stroke-linecap:round;stroke-miterlimit:10;}
	.st17{fill:none;stroke:#E6E6E6;stroke-width:2;stroke-linecap:round;stroke-miterlimit:10;}
	.st18{fill:#FDC4B3;}
	.st19{fill:#D36400;}
	.st20{fill:#ED7D0F;}
	.st21{fill:#E1A299;}
	.st22{clip-path:url(#XMLID_447_);fill:#FDC4B3;}
	.st23{fill:none;stroke:#775252;stroke-width:4.96456;stroke-linecap:round;stroke-miterlimit:10;}
	.st24{fill:#FFA0A0;}
	.st25{fill:none;stroke:#CC680E;stroke-width:4;stroke-linecap:round;stroke-miterlimit:10;}
	.st26{fill:#230F13;}
	.st27{fill:#AF675B;}
	.st28{fill:#874C46;}
	.st29{clip-path:url(#XMLID_456_);fill:#AF675B;}
	.st30{fill:none;stroke:#000000;stroke-width:6.21931;stroke-miterlimit:10;}
	.st31{fill:none;stroke:#874C46;stroke-width:5;stroke-linecap:round;stroke-miterlimit:10;}
	.st32{fill:none;stroke:#000000;stroke-width:4.59506;stroke-miterlimit:10;}
	.st33{fill:#B25C4B;}
	.st34{fill:#FFFFFF;stroke:#000000;stroke-width:5;stroke-miterlimit:10;}
	.st35{fill:#331814;}
	.st36{clip-path:url(#XMLID_457_);fill:#FF9766;}
	.st37{fill:none;stroke:#E37D4C;stroke-width:8.23793;stroke-linecap:round;stroke-miterlimit:10;}
	.st38{fill:#4C3117;}
	.st39{fill:none;stroke:#E37D4C;stroke-width:5.76655;stroke-linecap:round;stroke-miterlimit:10;}
	.st40{clip-path:url(#XMLID_477_);fill:#FDC4B3;}
	.st41{fill:none;stroke:#000000;stroke-width:3.45448;stroke-miterlimit:10;}
	.st42{fill:none;stroke:#874C46;stroke-width:2.77722;stroke-linecap:round;stroke-miterlimit:10;}
	.st43{fill:none;stroke:#000000;stroke-width:2.5523;stroke-miterlimit:10;}
	.st44{fill:#FFFFFF;stroke:#000000;stroke-width:2.77722;stroke-miterlimit:10;}
	.st45{clip-path:url(#XMLID_483_);fill:#3A1A1F;}
	.st46{clip-path:url(#XMLID_484_);fill:#FF9869;}
	.st47{fill:none;stroke:#FFFFFF;stroke-width:14.9718;stroke-linecap:round;stroke-miterlimit:10;}
	.st48{fill:none;stroke:#E37D4C;stroke-width:2.13883;stroke-linecap:round;stroke-miterlimit:10;}
	.st49{fill:none;stroke:#E6E6E6;stroke-width:1.06462;stroke-linecap:round;stroke-miterlimit:10;}
	.st50{clip-path:url(#XMLID_485_);fill:#FDC4B3;}
	.st51{fill:none;stroke:#775252;stroke-width:2.64269;stroke-linecap:round;stroke-miterlimit:10;}
	.st52{fill:none;stroke:#CC680E;stroke-width:2.12925;stroke-linecap:round;stroke-miterlimit:10;}
	.st53{clip-path:url(#XMLID_486_);fill:#FDC4B3;}
	.st54{clip-path:url(#XMLID_487_);fill:#FDC4B3;}
	.st55{clip-path:url(#XMLID_488_);fill:#FF9766;}
	.st56{fill:none;stroke:#E37D4C;stroke-width:4.78016;stroke-linecap:round;stroke-miterlimit:10;}
	.st57{fill:none;stroke:#E37D4C;stroke-width:3.34611;stroke-linecap:round;stroke-miterlimit:10;}
	.st58{clip-path:url(#XMLID_489_);fill:#FDC4B3;}
	.st59{clip-path:url(#XMLID_490_);fill:#FF9766;}
	.st60{fill:#653B32;}
	.st61{fill:#3A1A1F;}
	.st62{fill:none;}
	.st63{fill:#F69468;}
	.st64{fill:none;stroke:#FFFFFF;stroke-width:15.05307;stroke-linecap:round;stroke-miterlimit:10;}
	.st65{fill:none;stroke:#E17C4B;stroke-width:2.15044;stroke-linecap:round;stroke-miterlimit:10;}
	.st66{fill:none;stroke:#E5E5E4;stroke-width:1.0704;stroke-linecap:round;stroke-miterlimit:10;}
	.st67{fill:none;stroke:#231F20;stroke-width:2.65704;stroke-linecap:round;stroke-miterlimit:10;}
	.st68{fill:#3D2A1D;}
	.st69{fill:#281A12;}
	.st70{fill:none;stroke:#D73B3B;stroke-width:5.32281;stroke-linecap:round;stroke-miterlimit:10;}
	.st71{opacity:0.3;fill:none;stroke:#603A17;stroke-width:5.32281;stroke-linecap:round;stroke-miterlimit:10;}
	.st72{opacity:0.5;fill:none;stroke:#E17C4B;stroke-width:2.15044;stroke-linecap:round;stroke-miterlimit:10;}
	.st73{fill:#A96733;}
	.st74{fill:#08101E;}
	.st75{fill:#D07A4B;}
	.st76{fill:none;stroke:#915329;stroke-width:2.15044;stroke-linecap:round;stroke-miterlimit:10;}
	.st77{fill:#363B44;}
	.st78{opacity:0.5;fill:none;stroke:#A96733;stroke-width:2.15044;stroke-linecap:round;stroke-miterlimit:10;}
	.st79{fill:#7C544B;}
	.st80{fill:#A86052;}
	.st81{opacity:0.6;fill:none;stroke:#1A1A1A;stroke-width:2.15044;stroke-linecap:round;stroke-miterlimit:10;}
	.st82{opacity:0.3;fill:none;stroke:#1A1A1A;stroke-width:2.15044;stroke-linecap:round;stroke-miterlimit:10;}
	.st83{fill:#001334;}
	.st84{fill:#0B152E;}
	.st85{fill:#3A211E;}
	.st86{opacity:0.5;fill:#E17C4B;}
	.st87{fill:#ED977A;}
	.st88{fill:#C16008;}
	.st89{fill:#F7BDA9;}
	.st90{fill:#D37F67;}
	.st91{fill:#ED7D0E;}
	.st92{fill:#915329;}
	.st93{fill:#E6E6E6;}
	.st94{fill:#231F20;}
	.st95{clip-path:url(#SVGID_2_);}
	.st96{fill:#057A9E;}
	.st97{fill:none;stroke:#057A9E;stroke-width:2;stroke-miterlimit:10;}
	.st98{fill:#3FA9F5;}
	.st99{fill:#3094D1;}
	.st100{fill:#2B7DAF;}
	.st101{fill:#231F20;stroke:#2B7DAF;stroke-miterlimit:10;}
	.st102{fill:#BA6D5D;}
	.st103{fill:#AA5D50;}
	.st104{fill:#683818;}
</style>
<g id="XMLID_549_">
	<path id="XMLID_621_" class="st87" d="M118.7131,194.37405H84.74973l-3.26923,25.17778c0,0,3.66486,5.81358,19.22047,5.81358
		s21.28137-5.81358,21.28137-5.81358L118.7131,194.37405z"/>
	<polygon id="XMLID_620_" class="st88" points="21.0574,61.33894 21.0574,115.74579 179.74944,115.74579 179.74944,57.9031 	"/>
	<path id="XMLID_619_" class="st89" d="M187.06117,126.95326c-0.58408-9.01888-8.47537-15.83902-17.513-15.83902h-0.61415v-4.36558
		c0-38.24536-30.68205-69.24931-68.53043-69.24931h-0.00021c-37.8485,0-68.53065,31.00396-68.53065,69.24931v4.36558h-0.50016
		c-9.03773,0-16.92913,6.82014-17.513,15.83902c-0.63979,9.88275,7.18673,18.09802,16.9318,18.09802h1.08136v0.55411
		c2.95704,16.71529,11.02572,28.05508,18.08442,38.06306c10.83647,15.36418,24.10805,25.34428,50.44622,29.28696h0.00021
		c36.51243-4.00887,59.94421-31.55971,68.53043-67.35002v-0.55411h1.19534
		C179.87445,145.05128,187.70087,136.83601,187.06117,126.95326z"/>
	<path id="XMLID_618_" class="st87" d="M187.06117,126.95326c-0.58408-9.01888-8.47537-15.83902-17.513-15.83902h-0.61415v-4.36558
		c0-38.24536-30.68205-69.24931-68.53043-69.24931h-0.00021c-1.69315,0-3.36589,0.08352-5.02793,0.20544
		c35.49784,2.60438,61.81496,32.50927,61.81496,69.04388v4.36558v33.93704v0.55411c0,18.66905-8.93462,32.5946-17.57185,45.57295
		c-8.81725,13.24879-29.13506,19.28464-44.24311,21.58388c1.66204,0.11472,3.33479,0.19319,5.02793,0.19319h0.00021
		c29.79052-2.01424,41.77502-13.47049,54.01536-29.28696c8.0186-10.3613,13.53354-20.43767,14.51508-38.06306v-0.55411h1.19534
		C179.87445,145.05128,187.70087,136.83601,187.06117,126.95326z"/>
	<path class="st90" d="M101.54546,160.2769h-4.40121c-5.14635,0-9.33337-4.18661-9.33337-9.33296
		c0-5.14636,4.18702-9.33298,9.33337-9.33298c0.86253,0,1.56154,0.69859,1.56154,1.56113s-0.69901,1.56113-1.56154,1.56113
		c-3.42458,0-6.2103,2.78613-6.2103,6.21072c0,3.42458,2.78572,6.21071,6.2103,6.21071h4.40121
		c0.86253,0,1.56154,0.69859,1.56154,1.56113S102.408,160.2769,101.54546,160.2769z"/>
	<path id="XMLID_615_" class="st91" d="M176.69888,56.99813c0-28.4326-34.15865-52.16029-76.29547-52.16029
		S24.10794,28.56553,24.10794,56.99813c0,23.30382,3.55687,34.46253,3.55687,34.46253s55.56844-29.42144,72.7386-29.42144
		c20.17664,0,72.73862,29.42144,72.73862,29.42144S176.69888,70.70704,176.69888,56.99813z"/>
	<path id="XMLID_614_" class="st91" d="M168.34404,56.99813c0-28.4326-33.20692-52.16029-74.16975-52.16029
		S20.00455,28.56553,20.00455,56.99813c0,23.30382,1.29181,34.46253,1.29181,34.46253s56.18616-29.42144,72.87793-29.42144
		c19.61447,0,70.71198,26.42926,70.71198,26.42926S168.34404,70.70704,168.34404,56.99813z"/>
	<polyline id="XMLID_612_" class="st91" points="137.26184,91.46066 146.37955,91.46066 151.35251,82.39331 157.42999,91.46066 
		173.14136,91.46066 173.14136,54.46963 27.62324,54.46963 27.62324,91.46066 33.56493,91.46066 58.21324,76.46811 	"/>
	<path id="XMLID_611_" class="st88" d="M110.76476,21.27221c0,0,14.80277,1.54598,21.37078,5.92627
		s16.87166,16.74815,16.87166,16.74815"/>
	<path id="XMLID_610_" class="st88" d="M66.06791,36.55028c0,0-12.07664,7.242-15.53283,13.84285S44.487,72.38897,44.487,72.38897"
		/>
	<g id="XMLID_608_">
		<path id="XMLID_609_" class="st88" d="M105.70911,4.83781c-1.04459,0-2.08033,0.02576-3.11462,0.05633
			c39.51661,1.16713,73.82648,28.40206,73.82648,49.57549c0,10.425-1.41325,30.64305-2.37134,36.99107
			c3.5667,1.95711,5.8291,0,5.8291,0s0.00002-20.75367,0.00002-34.46257C179.87875,28.5655,146.67192,4.83781,105.70911,4.83781z"/>
	</g>
	<path class="st87" d="M30.64575,136.67715c-5.04749,0-9.15379-4.10587-9.15379-9.15337s4.10629-9.15337,9.15379-9.15337
		c0.86253,0,1.56154,0.69859,1.56154,1.56112c0,0.86253-0.69901,1.56113-1.56154,1.56113c-3.32532,0-6.03071,2.7054-6.03071,6.03113
		s2.7054,6.03113,6.03071,6.03113c0.86253,0,1.56154,0.69859,1.56154,1.56113
		C32.20728,135.97856,31.50828,136.67715,30.64575,136.67715z"/>
	<g id="XMLID_581_">
		<circle id="XMLID_606_" cx="129.60547" cy="126.3999" r="7.2798"/>
		<circle id="XMLID_604_" class="st4" cx="127.33838" cy="124.25562" r="2.20553"/>
	</g>
	<g id="XMLID_561_">
		<circle id="XMLID_571_" cx="65.49316" cy="126.3999" r="7.2798"/>
		<circle id="XMLID_564_" class="st4" cx="63.22559" cy="124.25562" r="2.20553"/>
	</g>
</g>
<path class="st102" d="M49.96043,113.27843c-0.6401,0-1.24107-0.39543-1.4705-1.03142
	c-0.29163-0.80981,0.12481-1.70282,0.93379-1.99609c0.37442-0.13593,9.38116-3.3076,28.17807-1.28844
	c0.85759,0.09227,1.47792,0.86253,1.38565,1.72012c-0.09226,0.85677-0.86665,1.47462-1.71929,1.38565
	c-17.97434-1.93349-26.69563,1.08826-26.78171,1.11874C50.31261,113.2496,50.13507,113.27843,49.96043,113.27843z"/>
<path class="st102" d="M142.43166,113.36658c-0.18782,0-0.37895-0.03378-0.56473-0.10627l0,0
	c-0.08073-0.03048-8.283-3.09094-25.14108-1.27856c-0.85924,0.08238-1.62703-0.52806-1.7193-1.38647
	c-0.09226-0.85677,0.52807-1.62703,1.38566-1.71929c17.72308-1.90301,26.25446,1.33622,26.60912,1.47462
	c0.80321,0.3147,1.19905,1.22007,0.88477,2.02328C143.64471,112.9901,143.05569,113.36658,142.43166,113.36658z"/>
<path class="st87" d="M58.73576,144.43452h-2.17964c-0.87228,0-1.58596,0.71368-1.58596,1.58595v2.17964
	c0,0.87228,0.71368,1.58597,1.58596,1.58597h2.17965c0.87228,0,1.58596-0.71368,1.58596-1.58597l0-2.17964
	C60.32172,145.14821,59.60804,144.43452,58.73576,144.43452z"/>
<path class="st87" d="M65.48443,151.18318h-2.17964c-0.87228,0-1.58596,0.71368-1.58596,1.58597v2.17964
	c0,0.87228,0.71368,1.58595,1.58596,1.58595h2.17964c0.87228,0,1.58596-0.71367,1.58596-1.58595v-2.17964
	C67.07039,151.89687,66.35671,151.18318,65.48443,151.18318z"/>
<path class="st87" d="M72.2331,142.74734h-2.17965c-0.87228,0-1.58596,0.71368-1.58596,1.58597v2.17964
	c0,0.87228,0.71368,1.58597,1.58596,1.58597h2.17965c0.87228,0,1.58596-0.71368,1.58596-1.58597v-2.17964
	C73.81906,143.46103,73.10538,142.74734,72.2331,142.74734z"/>
<path class="st87" d="M138.52873,144.43452h2.17964c0.87228,0,1.58597,0.71368,1.58597,1.58595v2.17964
	c0,0.87228-0.71368,1.58597-1.58597,1.58597h-2.17964c-0.87228,0-1.58595-0.71368-1.58595-1.58597v-2.17964
	C136.94278,145.14821,137.65645,144.43452,138.52873,144.43452z"/>
<path class="st87" d="M131.78006,151.18318h2.17964c0.87228,0,1.58597,0.71368,1.58597,1.58597v2.17964
	c0,0.87227-0.71368,1.58595-1.58595,1.58595h-2.17966c-0.87227,0-1.58595-0.71367-1.58595-1.58595v-2.17964
	C130.19411,151.89687,130.90779,151.18318,131.78006,151.18318z"/>
<path class="st87" d="M125.0314,142.74736h2.17964c0.87228,0,1.58595,0.71367,1.58595,1.58595v2.17964
	c0,0.87228-0.71367,1.58597-1.58595,1.58597h-2.17964c-0.87228,0-1.58596-0.71368-1.58596-1.58597v-2.17964
	C123.44544,143.46103,124.15912,142.74736,125.0314,142.74736z"/>
<path class="st90" d="M99.04643,186.17754c-4.96883,0-9.94794-0.86499-14.74294-2.60159
	c-0.81063-0.29327-1.22996-1.18877-0.93626-1.99939c0.29327-0.81229,1.19041-1.2283,1.9998-0.93668
	c9.6526,3.49626,20.56111,3.11319,29.92826-1.05118c0.78963-0.3493,1.71106,0.00494,2.06118,0.7925
	c0.35012,0.78839-0.00453,1.71106-0.79251,2.06119C110.97111,184.92783,105.01659,186.17754,99.04643,186.17754z"/>
</svg>
