<?xml version="1.0" encoding="utf-8"?>
<!-- Generator: Adobe Illustrator 18.1.1, SVG Export Plug-In . SVG Version: 6.00 Build 0)  -->
<!DOCTYPE svg PUBLIC "-//W3C//DTD SVG 1.1//EN" "http://www.w3.org/Graphics/SVG/1.1/DTD/svg11.dtd">
<svg version="1.1" id="Layer_1" xmlns="http://www.w3.org/2000/svg" xmlns:xlink="http://www.w3.org/1999/xlink" x="0px" y="0px"
	 viewBox="0 0 201.5 230" style="enable-background:new 0 0 201.5 230;" xml:space="preserve">
<style type="text/css">
	.st0{fill:#51392B;}
	.st1{fill:#3A261C;}
	.st2{fill:#3F2A20;}
	.st3{fill:#0384B6;}
	.st4{fill:#FFFFFF;}
	.st5{opacity:0.05;}
	.st6{fill:#E17C4B;}
	.st7{fill:#F2EA65;}
	.st8{fill:#DCC537;}
	.st9{fill:#F6966B;}
	.st10{fill:#653A31;}
	.st11{clip-path:url(#XMLID_187_);fill:#3A1A1F;}
	.st12{fill:#FF9766;}
	.st13{fill:#E37D4C;}
	.st14{clip-path:url(#XMLID_188_);fill:#FF9869;}
	.st15{fill:none;stroke:#FFFFFF;stroke-width:28.12596;stroke-linecap:round;stroke-miterlimit:10;}
	.st16{fill:none;stroke:#E37D4C;stroke-width:4.01799;stroke-linecap:round;stroke-miterlimit:10;}
	.st17{fill:none;stroke:#E6E6E6;stroke-width:2;stroke-linecap:round;stroke-miterlimit:10;}
	.st18{fill:#FDC4B3;}
	.st19{fill:#D36400;}
	.st20{fill:#ED7D0F;}
	.st21{fill:#E1A299;}
	.st22{clip-path:url(#XMLID_447_);fill:#FDC4B3;}
	.st23{fill:none;stroke:#775252;stroke-width:4.96456;stroke-linecap:round;stroke-miterlimit:10;}
	.st24{fill:#FFA0A0;}
	.st25{fill:none;stroke:#CC680E;stroke-width:4;stroke-linecap:round;stroke-miterlimit:10;}
	.st26{fill:#230F13;}
	.st27{fill:#AF675B;}
	.st28{fill:#874C46;}
	.st29{clip-path:url(#XMLID_456_);fill:#AF675B;}
	.st30{fill:none;stroke:#000000;stroke-width:6.21931;stroke-miterlimit:10;}
	.st31{fill:none;stroke:#874C46;stroke-width:5;stroke-linecap:round;stroke-miterlimit:10;}
	.st32{fill:none;stroke:#000000;stroke-width:4.59506;stroke-miterlimit:10;}
	.st33{fill:#B25C4B;}
	.st34{fill:#FFFFFF;stroke:#000000;stroke-width:5;stroke-miterlimit:10;}
	.st35{fill:#331814;}
	.st36{clip-path:url(#XMLID_457_);fill:#FF9766;}
	.st37{fill:none;stroke:#E37D4C;stroke-width:8.23793;stroke-linecap:round;stroke-miterlimit:10;}
	.st38{fill:#4C3117;}
	.st39{fill:none;stroke:#E37D4C;stroke-width:5.76655;stroke-linecap:round;stroke-miterlimit:10;}
	.st40{clip-path:url(#XMLID_477_);fill:#FDC4B3;}
	.st41{fill:none;stroke:#000000;stroke-width:3.45448;stroke-miterlimit:10;}
	.st42{fill:none;stroke:#874C46;stroke-width:2.77722;stroke-linecap:round;stroke-miterlimit:10;}
	.st43{fill:none;stroke:#000000;stroke-width:2.5523;stroke-miterlimit:10;}
	.st44{fill:#FFFFFF;stroke:#000000;stroke-width:2.77722;stroke-miterlimit:10;}
	.st45{clip-path:url(#XMLID_483_);fill:#3A1A1F;}
	.st46{clip-path:url(#XMLID_484_);fill:#FF9869;}
	.st47{fill:none;stroke:#FFFFFF;stroke-width:14.9718;stroke-linecap:round;stroke-miterlimit:10;}
	.st48{fill:none;stroke:#E37D4C;stroke-width:2.13883;stroke-linecap:round;stroke-miterlimit:10;}
	.st49{fill:none;stroke:#E6E6E6;stroke-width:1.06462;stroke-linecap:round;stroke-miterlimit:10;}
	.st50{clip-path:url(#XMLID_485_);fill:#FDC4B3;}
	.st51{fill:none;stroke:#775252;stroke-width:2.64269;stroke-linecap:round;stroke-miterlimit:10;}
	.st52{fill:none;stroke:#CC680E;stroke-width:2.12925;stroke-linecap:round;stroke-miterlimit:10;}
	.st53{clip-path:url(#XMLID_486_);fill:#FDC4B3;}
	.st54{clip-path:url(#XMLID_487_);fill:#FDC4B3;}
	.st55{clip-path:url(#XMLID_488_);fill:#FF9766;}
	.st56{fill:none;stroke:#E37D4C;stroke-width:4.78016;stroke-linecap:round;stroke-miterlimit:10;}
	.st57{fill:none;stroke:#E37D4C;stroke-width:3.34611;stroke-linecap:round;stroke-miterlimit:10;}
	.st58{clip-path:url(#XMLID_489_);fill:#FDC4B3;}
	.st59{clip-path:url(#XMLID_490_);fill:#FF9766;}
	.st60{fill:#653B32;}
	.st61{fill:#3A1A1F;}
	.st62{fill:none;}
	.st63{fill:#F69468;}
	.st64{fill:none;stroke:#FFFFFF;stroke-width:15.05307;stroke-linecap:round;stroke-miterlimit:10;}
	.st65{fill:none;stroke:#E17C4B;stroke-width:2.15044;stroke-linecap:round;stroke-miterlimit:10;}
	.st66{fill:none;stroke:#E5E5E4;stroke-width:1.0704;stroke-linecap:round;stroke-miterlimit:10;}
	.st67{fill:none;stroke:#231F20;stroke-width:2.65704;stroke-linecap:round;stroke-miterlimit:10;}
	.st68{fill:#3D2A1D;}
	.st69{fill:#281A12;}
	.st70{fill:none;stroke:#D73B3B;stroke-width:5.32281;stroke-linecap:round;stroke-miterlimit:10;}
	.st71{opacity:0.3;fill:none;stroke:#603A17;stroke-width:5.32281;stroke-linecap:round;stroke-miterlimit:10;}
	.st72{opacity:0.5;fill:none;stroke:#E17C4B;stroke-width:2.15044;stroke-linecap:round;stroke-miterlimit:10;}
	.st73{fill:#A96733;}
	.st74{fill:#08101E;}
	.st75{fill:#D07A4B;}
	.st76{fill:none;stroke:#915329;stroke-width:2.15044;stroke-linecap:round;stroke-miterlimit:10;}
	.st77{fill:#363B44;}
	.st78{opacity:0.5;fill:none;stroke:#A96733;stroke-width:2.15044;stroke-linecap:round;stroke-miterlimit:10;}
	.st79{fill:#7C544B;}
	.st80{fill:#A86052;}
	.st81{opacity:0.6;fill:none;stroke:#1A1A1A;stroke-width:2.15044;stroke-linecap:round;stroke-miterlimit:10;}
	.st82{opacity:0.3;fill:none;stroke:#1A1A1A;stroke-width:2.15044;stroke-linecap:round;stroke-miterlimit:10;}
	.st83{fill:#001334;}
	.st84{fill:#0B152E;}
	.st85{fill:#3A211E;}
	.st86{opacity:0.5;fill:#E17C4B;}
	.st87{fill:#ED977A;}
	.st88{fill:#C16008;}
	.st89{fill:#F7BDA9;}
	.st90{fill:#D37F67;}
	.st91{fill:#ED7D0E;}
	.st92{fill:#915329;}
	.st93{fill:#E6E6E6;}
	.st94{fill:#231F20;}
	.st95{clip-path:url(#SVGID_2_);}
	.st96{fill:#057A9E;}
	.st97{fill:none;stroke:#057A9E;stroke-width:2;stroke-miterlimit:10;}
	.st98{fill:#3FA9F5;}
	.st99{fill:#3094D1;}
	.st100{fill:#2B7DAF;}
	.st101{fill:#231F20;stroke:#2B7DAF;stroke-miterlimit:10;}
	.st102{fill:#BA6D5D;}
	.st103{fill:#AA5D50;}
	.st104{fill:#683818;}
</style>
<path class="st1" d="M147,180.18723c0,0,20.37561-0.91188,25.56967-2.88356c5.19408-1.97166,20.85677-2.98663,20.84334-19.63148
	c-0.01344-16.64485-6.67047-45.97676-6.67047-45.97676L147,118.09947V180.18723z"/>
<path id="XMLID_640_" class="st0" d="M36.62951,31.10899c0,0-15.68264,7.83712-20.91019,19.53161S1.9005,80.4445,11.91996,129.4534
	s42.37574,56.13751,42.37574,56.13751l20.16091-0.39809l3.63024-37.47446l5.15495-71.44315L36.62951,31.10899z"/>
<g id="XMLID_622_">
	<path id="XMLID_650_" class="st6" d="M115.96478,189.2001H81.04166l-3.36162,25.88927c0,0,3.76842,5.97786,19.76362,5.97786
		s21.88274-5.97786,21.88274-5.97786L115.96478,189.2001z"/>
	<path id="XMLID_648_" class="st9" d="M186.24423,111.69542c-0.60059-10.13143-8.71487-17.79288-18.00789-17.79288h-0.6315v-4.90411
		c0.55377-58.72803-31.54907-77.79171-70.46699-77.79171h-0.00021c-38.91803,0-71.72869,10.69433-70.4672,77.79171v4.90411h-0.51429
		c-9.29312,0-17.40751,7.66145-18.00789,17.79288c-0.65787,11.10186,7.38981,20.33054,17.41027,20.33054h1.11191v0.62247
		c3.0406,18.77724,11.33729,31.51588,18.59546,42.75842c11.14268,17.25946,24.7893,28.47067,51.87174,32.8997h0.00021
		c37.54421-4.50339,61.63813-35.45282,70.46699-75.65813v-0.62247h1.22913
		C178.85443,132.02596,186.90201,122.79728,186.24423,111.69542z"/>
	<path id="XMLID_647_" class="st6" d="M186.24423,111.69542c-0.60059-10.13143-8.71487-17.79288-18.00789-17.79288h-0.6315v-4.90411
		c0.55377-58.72803-31.54907-77.79171-70.46699-77.79171h-0.00021c-1.74099,0-3.46101,0.09382-5.17001,0.23078
		c36.50095,2.92565,63.56175,36.51952,63.56175,77.56093v4.90411v38.12341v0.62247c0,20.97202-9.1871,36.61537-18.06842,51.19469
		c-9.06639,14.88315-29.95835,21.66356-45.49333,24.24641c1.70901,0.12888,3.42902,0.21703,5.17001,0.21703h0.00021
		c30.63235-2.26271,42.95551-15.13217,55.54174-32.8997c8.24519-11.63943,13.91597-22.95882,14.92525-42.75842v-0.62247h1.22913
		C178.85443,132.02596,186.90201,122.79728,186.24423,111.69542z"/>
	<path class="st6" d="M98.31187,154.31721h-4.52548c-5.3896,0-9.77457-4.38455-9.77457-9.77415s4.38497-9.77498,9.77457-9.77498
		c0.98479,0,1.78331,0.79852,1.78331,1.78331s-0.79852,1.78329-1.78331,1.78329c-3.42286,0-6.20795,2.78511-6.20795,6.20837
		c0,3.42245,2.7851,6.20755,6.20795,6.20755h4.52548c0.98479,0,1.78331,0.79852,1.78331,1.78331
		S99.29665,154.31721,98.31187,154.31721z"/>
	<path class="st6" d="M23.75035,123.111c-5.28796,0-9.58992-4.30196-9.58992-9.59033c0-5.28755,4.30196-9.58952,9.58992-9.58952
		c0.98479,0,1.7833,0.79852,1.7833,1.7833c0,0.98479-0.79852,1.78331-1.7833,1.78331c-3.32122,0-6.02331,2.70168-6.02331,6.0229
		c0,3.32123,2.70209,6.02372,6.02331,6.02372c0.98479,0,1.7833,0.79852,1.7833,1.7833
		C25.53365,122.31248,24.73513,123.111,23.75035,123.111z"/>
	<g id="XMLID_635_">
		<circle id="XMLID_637_" cx="127.16504" cy="119.30518" r="7.48551"/>
		<circle id="XMLID_636_" class="st4" cx="124.8335" cy="117.10034" r="2.26786"/>
	</g>
	<g id="XMLID_623_">
		<circle id="XMLID_625_" cx="61.24072" cy="119.30518" r="7.48551"/>
		<circle id="XMLID_624_" class="st4" cx="58.90967" cy="117.10034" r="2.26786"/>
	</g>
</g>
<path class="st103" d="M45.26906,105.74281c-0.62926,0-1.22005-0.38873-1.44559-1.01395
	c-0.28669-0.79609,0.12269-1.67397,0.91797-1.96228c0.38468-0.1393,9.63123-3.39411,28.94267-1.32169
	c0.84306,0.09071,1.45288,0.84792,1.36218,1.69017c-0.09071,0.84306-0.85117,1.45288-1.69018,1.36299
	c-18.5024-1.99063-27.48128,1.12246-27.56956,1.15485C45.61568,105.71445,45.44075,105.74281,45.26906,105.74281z"/>
<path class="st103" d="M140.35358,105.8327c-0.18506,0-0.37335-0.03401-0.55597-0.10528
	c-0.13322-0.05103-8.57841-3.18031-25.88384-1.31764c-0.83942,0.08018-1.59946-0.51911-1.69017-1.36217
	s0.51912-1.60028,1.36217-1.69099c18.20802-1.95499,26.9642,1.36866,27.32782,1.5112
	c0.78961,0.30936,1.17874,1.19939,0.86978,1.98901C141.5461,105.46259,140.96704,105.8327,140.35358,105.8327z"/>
<path class="st13" d="M95.7426,180.93965c-5.12843,0-10.26778-0.89165-15.21722-2.68468
	c-0.92081-0.33366-1.397-1.35002-1.06375-2.27164c0.33407-0.92163,1.35085-1.39619,2.27206-1.06335
	c9.8839,3.57957,21.05547,3.18761,30.64864-1.07629c0.89368-0.39926,1.94285,0.00404,2.3413,0.89975
	c0.39764,0.89571-0.00526,1.94366-0.90057,2.34129C108.0508,179.65036,101.9048,180.93965,95.7426,180.93965z"/>
<path id="XMLID_639_" class="st0" d="M147.60521,91.67245c0,0-35.9453,2.59747-65.63013-6.37936
	c-20.05023-6.06329-37.73223-21.4021-47.08432-31.66728c-5.2324-5.74326-5.81491-14.82673-2.99103-22.16882
	C39.77085,10.99208,72.20118,6.44303,88.88795,6.44303s53.20879,3.42613,80.28543,39.33702s23.92821,110.75421,23.92821,110.75421
	l-30.85611-55.41647L147.60521,91.67245z"/>
<path class="st1" d="M94.13255,30.38765c0,0,22.40416-4.17138,46.85497,16.53681"/>
</svg>
