<?xml version="1.0" encoding="utf-8"?>
<!-- Generator: Adobe Illustrator 18.1.1, SVG Export Plug-In . SVG Version: 6.00 Build 0)  -->
<!DOCTYPE svg PUBLIC "-//W3C//DTD SVG 1.1//EN" "http://www.w3.org/Graphics/SVG/1.1/DTD/svg11.dtd">
<svg version="1.1" id="Layer_1" xmlns="http://www.w3.org/2000/svg" xmlns:xlink="http://www.w3.org/1999/xlink" x="0px" y="0px"
	 viewBox="0 0 201.5 230" style="enable-background:new 0 0 201.5 230;" xml:space="preserve">
<style type="text/css">
	.st0{fill:#51392B;}
	.st1{fill:#3A261C;}
	.st2{fill:#3F2A20;}
	.st3{fill:#0384B6;}
	.st4{fill:#FFFFFF;}
	.st5{opacity:0.05;}
	.st6{fill:#E17C4B;}
	.st7{fill:#F2EA65;}
	.st8{fill:#DCC537;}
	.st9{fill:#F6966B;}
	.st10{fill:#653A31;}
	.st11{clip-path:url(#XMLID_187_);fill:#3A1A1F;}
	.st12{fill:#FF9766;}
	.st13{fill:#E37D4C;}
	.st14{clip-path:url(#XMLID_188_);fill:#FF9869;}
	.st15{fill:none;stroke:#FFFFFF;stroke-width:28.12596;stroke-linecap:round;stroke-miterlimit:10;}
	.st16{fill:none;stroke:#E37D4C;stroke-width:4.01799;stroke-linecap:round;stroke-miterlimit:10;}
	.st17{fill:none;stroke:#E6E6E6;stroke-width:2;stroke-linecap:round;stroke-miterlimit:10;}
	.st18{fill:#FDC4B3;}
	.st19{fill:#D36400;}
	.st20{fill:#ED7D0F;}
	.st21{fill:#E1A299;}
	.st22{clip-path:url(#XMLID_447_);fill:#FDC4B3;}
	.st23{fill:none;stroke:#775252;stroke-width:4.96456;stroke-linecap:round;stroke-miterlimit:10;}
	.st24{fill:#FFA0A0;}
	.st25{fill:none;stroke:#CC680E;stroke-width:4;stroke-linecap:round;stroke-miterlimit:10;}
	.st26{fill:#230F13;}
	.st27{fill:#AF675B;}
	.st28{fill:#874C46;}
	.st29{clip-path:url(#XMLID_456_);fill:#AF675B;}
	.st30{fill:none;stroke:#000000;stroke-width:6.21931;stroke-miterlimit:10;}
	.st31{fill:none;stroke:#874C46;stroke-width:5;stroke-linecap:round;stroke-miterlimit:10;}
	.st32{fill:none;stroke:#000000;stroke-width:4.59506;stroke-miterlimit:10;}
	.st33{fill:#B25C4B;}
	.st34{fill:#FFFFFF;stroke:#000000;stroke-width:5;stroke-miterlimit:10;}
	.st35{fill:#331814;}
	.st36{clip-path:url(#XMLID_457_);fill:#FF9766;}
	.st37{fill:none;stroke:#E37D4C;stroke-width:8.23793;stroke-linecap:round;stroke-miterlimit:10;}
	.st38{fill:#4C3117;}
	.st39{fill:none;stroke:#E37D4C;stroke-width:5.76655;stroke-linecap:round;stroke-miterlimit:10;}
	.st40{clip-path:url(#XMLID_477_);fill:#FDC4B3;}
	.st41{fill:none;stroke:#000000;stroke-width:3.45448;stroke-miterlimit:10;}
	.st42{fill:none;stroke:#874C46;stroke-width:2.77722;stroke-linecap:round;stroke-miterlimit:10;}
	.st43{fill:none;stroke:#000000;stroke-width:2.5523;stroke-miterlimit:10;}
	.st44{fill:#FFFFFF;stroke:#000000;stroke-width:2.77722;stroke-miterlimit:10;}
	.st45{clip-path:url(#XMLID_483_);fill:#3A1A1F;}
	.st46{clip-path:url(#XMLID_484_);fill:#FF9869;}
	.st47{fill:none;stroke:#FFFFFF;stroke-width:14.9718;stroke-linecap:round;stroke-miterlimit:10;}
	.st48{fill:none;stroke:#E37D4C;stroke-width:2.13883;stroke-linecap:round;stroke-miterlimit:10;}
	.st49{fill:none;stroke:#E6E6E6;stroke-width:1.06462;stroke-linecap:round;stroke-miterlimit:10;}
	.st50{clip-path:url(#XMLID_485_);fill:#FDC4B3;}
	.st51{fill:none;stroke:#775252;stroke-width:2.64269;stroke-linecap:round;stroke-miterlimit:10;}
	.st52{fill:none;stroke:#CC680E;stroke-width:2.12925;stroke-linecap:round;stroke-miterlimit:10;}
	.st53{clip-path:url(#XMLID_486_);fill:#FDC4B3;}
	.st54{clip-path:url(#XMLID_487_);fill:#FDC4B3;}
	.st55{clip-path:url(#XMLID_488_);fill:#FF9766;}
	.st56{fill:none;stroke:#E37D4C;stroke-width:4.78016;stroke-linecap:round;stroke-miterlimit:10;}
	.st57{fill:none;stroke:#E37D4C;stroke-width:3.34611;stroke-linecap:round;stroke-miterlimit:10;}
	.st58{clip-path:url(#XMLID_489_);fill:#FDC4B3;}
	.st59{clip-path:url(#XMLID_490_);fill:#FF9766;}
	.st60{fill:#653B32;}
	.st61{fill:#3A1A1F;}
	.st62{fill:none;}
	.st63{fill:#F69468;}
	.st64{fill:none;stroke:#FFFFFF;stroke-width:15.05307;stroke-linecap:round;stroke-miterlimit:10;}
	.st65{fill:none;stroke:#E17C4B;stroke-width:2.15044;stroke-linecap:round;stroke-miterlimit:10;}
	.st66{fill:none;stroke:#E5E5E4;stroke-width:1.0704;stroke-linecap:round;stroke-miterlimit:10;}
	.st67{fill:none;stroke:#231F20;stroke-width:2.65704;stroke-linecap:round;stroke-miterlimit:10;}
	.st68{fill:#3D2A1D;}
	.st69{fill:#281A12;}
	.st70{fill:none;stroke:#D73B3B;stroke-width:5.32281;stroke-linecap:round;stroke-miterlimit:10;}
	.st71{opacity:0.3;fill:none;stroke:#603A17;stroke-width:5.32281;stroke-linecap:round;stroke-miterlimit:10;}
	.st72{opacity:0.5;fill:none;stroke:#E17C4B;stroke-width:2.15044;stroke-linecap:round;stroke-miterlimit:10;}
	.st73{fill:#A96733;}
	.st74{fill:#08101E;}
	.st75{fill:#D07A4B;}
	.st76{fill:none;stroke:#915329;stroke-width:2.15044;stroke-linecap:round;stroke-miterlimit:10;}
	.st77{fill:#363B44;}
	.st78{opacity:0.5;fill:none;stroke:#A96733;stroke-width:2.15044;stroke-linecap:round;stroke-miterlimit:10;}
	.st79{fill:#7C544B;}
	.st80{fill:#A86052;}
	.st81{opacity:0.6;fill:none;stroke:#1A1A1A;stroke-width:2.15044;stroke-linecap:round;stroke-miterlimit:10;}
	.st82{opacity:0.3;fill:none;stroke:#1A1A1A;stroke-width:2.15044;stroke-linecap:round;stroke-miterlimit:10;}
	.st83{fill:#001334;}
	.st84{fill:#0B152E;}
	.st85{fill:#3A211E;}
	.st86{opacity:0.5;fill:#E17C4B;}
	.st87{fill:#ED977A;}
	.st88{fill:#C16008;}
	.st89{fill:#F7BDA9;}
	.st90{fill:#D37F67;}
	.st91{fill:#ED7D0E;}
	.st92{fill:#915329;}
	.st93{fill:#E6E6E6;}
	.st94{fill:#231F20;}
	.st95{clip-path:url(#SVGID_2_);}
	.st96{fill:#057A9E;}
	.st97{fill:none;stroke:#057A9E;stroke-width:2;stroke-miterlimit:10;}
	.st98{fill:#3FA9F5;}
	.st99{fill:#3094D1;}
	.st100{fill:#2B7DAF;}
	.st101{fill:#231F20;stroke:#2B7DAF;stroke-miterlimit:10;}
	.st102{fill:#BA6D5D;}
	.st103{fill:#AA5D50;}
	.st104{fill:#683818;}
</style>
<path id="XMLID_659_" class="st0" d="M39.21613,26.37691c0,0-10.5321,5.26323-14.0428,13.11698s-9.2804,20.01561-2.55156,52.92884
	s28.45857,37.70065,28.45857,37.70065l13.5396-0.26733l2.43799-25.16698l3.46194-47.97956L39.21613,26.37691z"/>
<g id="XMLID_643_">
	<path id="XMLID_658_" class="st73" d="M119.71908,191.23164H84.7312l-3.36785,25.93727c0,0,3.77541,5.98895,19.80026,5.98895
		s21.92332-5.98895,21.92332-5.98895L119.71908,191.23164z"/>
	<path id="XMLID_657_" class="st75" d="M190.12888,113.58323c-0.60172-10.15022-8.73105-17.82587-18.04129-17.82587h-0.63268
		v-4.91321c0.55479-58.83694-31.60757-77.93597-70.59766-77.93597h-0.00021c-38.99019,0-71.8617,10.71416-70.59787,77.93597v4.91321
		h-0.51524c-9.31035,0-17.43979,7.67565-18.04128,17.82587c-0.65909,11.12245,7.40352,20.36823,17.44255,20.36823h1.11398v0.62363
		c3.04624,18.81206,11.35832,28.1691,18.62994,39.43248c11.16335,17.29147,21.63075,31.81197,51.96793,36.36595h0.00021
		c37.61382-4.51175,61.75243-35.51857,70.59766-75.79843v-0.62363h1.2314
		C182.72536,133.95146,190.78786,124.70568,190.12888,113.58323z"/>
	<path id="XMLID_656_" class="st73" d="M190.12888,113.58323c-0.60172-10.15022-8.73105-17.82587-18.04129-17.82587h-0.63268
		v-4.91321c0.55479-58.83694-31.60757-77.93597-70.59766-77.93597h-0.00021c-1.74421,0-3.46741,0.09399-5.1796,0.23121
		c36.56864,2.93107,63.67962,36.58723,63.67962,77.70477v4.91321v38.1941v0.62363c0,21.01091-9.20413,36.68327-18.10191,51.28963
		c-9.08321,14.91074-30.01392,21.70372-45.57771,24.29138c1.71218,0.1291,3.43539,0.21742,5.1796,0.21742h0.00021
		c34.0414-3.17876,41.81367-17.71326,54.42324-35.51375c8.26048-11.66103,15.16328-20.44836,16.17442-40.28468v-0.62363h1.2314
		C182.72536,133.95146,190.78786,124.70568,190.12888,113.58323z"/>
	<path class="st92" d="M102.03343,156.03488h-4.53387c-5.26247,0-9.54401-4.28073-9.54401-9.54321
		c0-5.26247,4.28154-9.54401,9.54401-9.54401c0.84949,0,1.53793,0.68803,1.53793,1.53752s-0.68844,1.53752-1.53793,1.53752
		c-3.56673,0-6.46815,2.90224-6.46815,6.46896c0,3.56674,2.90142,6.46815,6.46815,6.46815h4.53387
		c0.84949,0,1.53793,0.68803,1.53793,1.53752C103.57137,155.34685,102.88293,156.03488,102.03343,156.03488z"/>
	<path class="st92" d="M27.33365,124.77078c-5.16065,0-9.35902-4.19797-9.35902-9.35822c0-5.16105,4.19838-9.35902,9.35902-9.35902
		c0.84949,0,1.53793,0.68803,1.53793,1.53753c0,0.84949-0.68844,1.53752-1.53793,1.53752c-3.4645,0-6.28316,2.81947-6.28316,6.28397
		c0,3.46451,2.81866,6.28316,6.28316,6.28316c0.84949,0,1.53793,0.68803,1.53793,1.53753
		C28.87158,124.08275,28.18314,124.77078,27.33365,124.77078z"/>
	<g id="XMLID_651_">
		<circle id="XMLID_653_" cx="130.93994" cy="121.20703" r="7.49939"/>
		<circle id="XMLID_652_" class="st4" cx="128.60425" cy="118.99829" r="2.27206"/>
	</g>
	<g id="XMLID_644_">
		<circle id="XMLID_649_" cx="64.89355" cy="121.20703" r="7.49939"/>
		<circle id="XMLID_645_" class="st4" cx="62.55811" cy="118.99829" r="2.27206"/>
	</g>
</g>
<path class="st104" d="M48.89227,102.54929c-0.63042,0-1.22231-0.38945-1.44828-1.01582
	c-0.28722-0.79756,0.12292-1.67708,0.91968-1.96592c0.3854-0.13956,9.64909-3.3996,28.99634-1.32414
	c0.84463,0.09087,1.45558,0.84949,1.36471,1.69331c-0.09087,0.84463-0.85274,1.45558-1.69331,1.36552
	c-18.53753-1.99432-27.53265,1.12455-27.62069,1.157C49.23953,102.52089,49.06427,102.54929,48.89227,102.54929z"/>
<path class="st104" d="M144.15311,102.63934c-0.18539,0-0.37404-0.03407-0.55701-0.10548
	c-0.13387-0.05111-8.59512-3.1862-25.93184-1.32008c-0.84097,0.08032-1.60243-0.52008-1.69331-1.36471
	c-0.09087-0.84463,0.52008-1.60325,1.36471-1.69411c18.24179-1.95781,27.01419,1.37119,27.37849,1.51399
	c0.79108,0.30994,1.18094,1.20162,0.8714,1.9927C145.34782,102.26855,144.76772,102.63934,144.15311,102.63934z"/>
<path class="st92" d="M99.4594,177.64705c-5.11034,0-10.23205-0.88925-15.16389-2.67587
	c-0.79838-0.28883-1.21136-1.17079-0.92211-1.96916c0.28925-0.79919,1.17282-1.21136,1.96957-0.92252
	c9.96146,3.60811,21.21744,3.21217,30.88397-1.08479c0.77566-0.34563,1.68438,0.00406,2.03001,0.78053
	c0.34483,0.77647-0.00446,1.6852-0.78053,2.03003C111.7243,176.36185,105.60017,177.64705,99.4594,177.64705z"/>
<path id="XMLID_641_" class="st0" d="M137.79599,61.14115c0,0-31.2174,1.71929-56.99778-4.22256
	c-17.41302-4.01334-32.7693-14.16624-40.89131-20.96085c-4.54418-3.80151-5.05007-9.81395-2.59761-14.67374
	C44.14511,7.73809,69.97607,5.00381,84.44338,4.15903c14.79111-0.86369,47.44846-0.70654,70.96372,23.06321
	s16.64368,64.38684,16.64368,64.38684l-11.43156-31.65665L137.79599,61.14115z"/>
<path class="st1" d="M89.53805,23.73107c0,0,22.4457-4.17911,46.94186,16.56748"/>
</svg>
