<?xml version="1.0" encoding="utf-8"?>
<!-- Generator: Adobe Illustrator 18.1.1, SVG Export Plug-In . SVG Version: 6.00 Build 0)  -->
<!DOCTYPE svg PUBLIC "-//W3C//DTD SVG 1.1//EN" "http://www.w3.org/Graphics/SVG/1.1/DTD/svg11.dtd">
<svg version="1.1" id="Layer_1" xmlns="http://www.w3.org/2000/svg" xmlns:xlink="http://www.w3.org/1999/xlink" x="0px" y="0px"
	 viewBox="0 0 201.5 230" style="enable-background:new 0 0 201.5 230;" xml:space="preserve">
<style type="text/css">
	.st0{fill:#51392B;}
	.st1{fill:#3A261C;}
	.st2{fill:#3F2A20;}
	.st3{fill:#0384B6;}
	.st4{fill:#FFFFFF;}
	.st5{opacity:0.05;}
	.st6{fill:#E17C4B;}
	.st7{fill:#F2EA65;}
	.st8{fill:#DCC537;}
	.st9{fill:#F6966B;}
	.st10{fill:#653A31;}
	.st11{clip-path:url(#XMLID_187_);fill:#3A1A1F;}
	.st12{fill:#FF9766;}
	.st13{fill:#E37D4C;}
	.st14{clip-path:url(#XMLID_188_);fill:#FF9869;}
	.st15{fill:none;stroke:#FFFFFF;stroke-width:28.12596;stroke-linecap:round;stroke-miterlimit:10;}
	.st16{fill:none;stroke:#E37D4C;stroke-width:4.01799;stroke-linecap:round;stroke-miterlimit:10;}
	.st17{fill:none;stroke:#E6E6E6;stroke-width:2;stroke-linecap:round;stroke-miterlimit:10;}
	.st18{fill:#FDC4B3;}
	.st19{fill:#D36400;}
	.st20{fill:#ED7D0F;}
	.st21{fill:#E1A299;}
	.st22{clip-path:url(#XMLID_447_);fill:#FDC4B3;}
	.st23{fill:none;stroke:#775252;stroke-width:4.96456;stroke-linecap:round;stroke-miterlimit:10;}
	.st24{fill:#FFA0A0;}
	.st25{fill:none;stroke:#CC680E;stroke-width:4;stroke-linecap:round;stroke-miterlimit:10;}
	.st26{fill:#230F13;}
	.st27{fill:#AF675B;}
	.st28{fill:#874C46;}
	.st29{clip-path:url(#XMLID_456_);fill:#AF675B;}
	.st30{fill:none;stroke:#000000;stroke-width:6.21931;stroke-miterlimit:10;}
	.st31{fill:none;stroke:#874C46;stroke-width:5;stroke-linecap:round;stroke-miterlimit:10;}
	.st32{fill:none;stroke:#000000;stroke-width:4.59506;stroke-miterlimit:10;}
	.st33{fill:#B25C4B;}
	.st34{fill:#FFFFFF;stroke:#000000;stroke-width:5;stroke-miterlimit:10;}
	.st35{fill:#331814;}
	.st36{clip-path:url(#XMLID_457_);fill:#FF9766;}
	.st37{fill:none;stroke:#E37D4C;stroke-width:8.23793;stroke-linecap:round;stroke-miterlimit:10;}
	.st38{fill:#4C3117;}
	.st39{fill:none;stroke:#E37D4C;stroke-width:5.76655;stroke-linecap:round;stroke-miterlimit:10;}
	.st40{clip-path:url(#XMLID_477_);fill:#FDC4B3;}
	.st41{fill:none;stroke:#000000;stroke-width:3.45448;stroke-miterlimit:10;}
	.st42{fill:none;stroke:#874C46;stroke-width:2.77722;stroke-linecap:round;stroke-miterlimit:10;}
	.st43{fill:none;stroke:#000000;stroke-width:2.5523;stroke-miterlimit:10;}
	.st44{fill:#FFFFFF;stroke:#000000;stroke-width:2.77722;stroke-miterlimit:10;}
	.st45{clip-path:url(#XMLID_483_);fill:#3A1A1F;}
	.st46{clip-path:url(#XMLID_484_);fill:#FF9869;}
	.st47{fill:none;stroke:#FFFFFF;stroke-width:14.9718;stroke-linecap:round;stroke-miterlimit:10;}
	.st48{fill:none;stroke:#E37D4C;stroke-width:2.13883;stroke-linecap:round;stroke-miterlimit:10;}
	.st49{fill:none;stroke:#E6E6E6;stroke-width:1.06462;stroke-linecap:round;stroke-miterlimit:10;}
	.st50{clip-path:url(#XMLID_485_);fill:#FDC4B3;}
	.st51{fill:none;stroke:#775252;stroke-width:2.64269;stroke-linecap:round;stroke-miterlimit:10;}
	.st52{fill:none;stroke:#CC680E;stroke-width:2.12925;stroke-linecap:round;stroke-miterlimit:10;}
	.st53{clip-path:url(#XMLID_486_);fill:#FDC4B3;}
	.st54{clip-path:url(#XMLID_487_);fill:#FDC4B3;}
	.st55{clip-path:url(#XMLID_488_);fill:#FF9766;}
	.st56{fill:none;stroke:#E37D4C;stroke-width:4.78016;stroke-linecap:round;stroke-miterlimit:10;}
	.st57{fill:none;stroke:#E37D4C;stroke-width:3.34611;stroke-linecap:round;stroke-miterlimit:10;}
	.st58{clip-path:url(#XMLID_489_);fill:#FDC4B3;}
	.st59{clip-path:url(#XMLID_490_);fill:#FF9766;}
	.st60{fill:#653B32;}
	.st61{fill:#3A1A1F;}
	.st62{fill:none;}
	.st63{fill:#F69468;}
	.st64{fill:none;stroke:#FFFFFF;stroke-width:15.05307;stroke-linecap:round;stroke-miterlimit:10;}
	.st65{fill:none;stroke:#E17C4B;stroke-width:2.15044;stroke-linecap:round;stroke-miterlimit:10;}
	.st66{fill:none;stroke:#E5E5E4;stroke-width:1.0704;stroke-linecap:round;stroke-miterlimit:10;}
	.st67{fill:none;stroke:#231F20;stroke-width:2.65704;stroke-linecap:round;stroke-miterlimit:10;}
	.st68{fill:#3D2A1D;}
	.st69{fill:#281A12;}
	.st70{fill:none;stroke:#D73B3B;stroke-width:5.32281;stroke-linecap:round;stroke-miterlimit:10;}
	.st71{opacity:0.3;fill:none;stroke:#603A17;stroke-width:5.32281;stroke-linecap:round;stroke-miterlimit:10;}
	.st72{opacity:0.5;fill:none;stroke:#E17C4B;stroke-width:2.15044;stroke-linecap:round;stroke-miterlimit:10;}
	.st73{fill:#A96733;}
	.st74{fill:#08101E;}
	.st75{fill:#D07A4B;}
	.st76{fill:none;stroke:#915329;stroke-width:2.15044;stroke-linecap:round;stroke-miterlimit:10;}
	.st77{fill:#363B44;}
	.st78{opacity:0.5;fill:none;stroke:#A96733;stroke-width:2.15044;stroke-linecap:round;stroke-miterlimit:10;}
	.st79{fill:#7C544B;}
	.st80{fill:#A86052;}
	.st81{opacity:0.6;fill:none;stroke:#1A1A1A;stroke-width:2.15044;stroke-linecap:round;stroke-miterlimit:10;}
	.st82{opacity:0.3;fill:none;stroke:#1A1A1A;stroke-width:2.15044;stroke-linecap:round;stroke-miterlimit:10;}
	.st83{fill:#001334;}
	.st84{fill:#0B152E;}
	.st85{fill:#3A211E;}
	.st86{opacity:0.5;fill:#E17C4B;}
	.st87{fill:#ED977A;}
	.st88{fill:#C16008;}
	.st89{fill:#F7BDA9;}
	.st90{fill:#D37F67;}
	.st91{fill:#ED7D0E;}
	.st92{fill:#915329;}
	.st93{fill:#E6E6E6;}
	.st94{fill:#231F20;}
	.st95{clip-path:url(#SVGID_2_);}
	.st96{fill:#057A9E;}
	.st97{fill:none;stroke:#057A9E;stroke-width:2;stroke-miterlimit:10;}
	.st98{fill:#3FA9F5;}
	.st99{fill:#3094D1;}
	.st100{fill:#2B7DAF;}
	.st101{fill:#231F20;stroke:#2B7DAF;stroke-miterlimit:10;}
	.st102{fill:#BA6D5D;}
	.st103{fill:#AA5D50;}
	.st104{fill:#683818;}
</style>
<g id="XMLID_172_">
	<path id="XMLID_461_" class="st73" d="M118.64366,193.33711H85.08844l-3.22995,24.87521c0,0,3.62082,5.74371,18.98949,5.74371
		s21.02562-5.74371,21.02562-5.74371L118.64366,193.33711z"/>
	<polygon id="XMLID_460_" class="st74" points="22.16152,69.18053 22.16152,127.84242 178.94649,127.84242 178.94649,65.47598 	"/>
	<path id="XMLID_459_" class="st75" d="M186.17036,126.72654c-0.57707-8.9105-8.37352-15.64867-17.30255-15.64867h-0.60677v-4.31313
		c0-37.78575-30.31332-68.41711-67.70688-68.41711h-0.00021c-37.39365,0-67.70708,30.63136-67.70708,68.41711v4.31313h-0.49414
		c-8.92912,0-16.72569,6.73817-17.30255,15.64867c-0.6321,9.76398,7.10036,17.88053,16.72833,17.88053h1.06836v0.54745
		c0,37.78575,30.31343,66.54063,67.70708,66.54063h0.00021c37.39355,0,67.70688-28.75488,67.70688-66.54063v-0.54745h1.18098
		C179.07001,144.60707,186.80237,136.49052,186.17036,126.72654z"/>
	<path id="XMLID_458_" class="st73" d="M186.17036,126.72654c-0.57707-8.9105-8.37352-15.64867-17.30255-15.64867h-0.60677v-4.31313
		c0-37.78575-30.31332-68.41711-67.70688-68.41711h-0.00021c-1.67279,0-3.32544,0.08251-4.96751,0.20297
		c35.07126,2.57308,61.07211,32.11859,61.07211,68.21414v4.31313v33.52921v0.54745c0,35.78885-30.44634,64.23683-61.07211,66.34978
		c1.64207,0.11334,3.29472,0.19086,4.96751,0.19086h0.00021c37.39355,0,67.70688-28.75488,67.70688-66.54063v-0.54745h1.18098
		C179.07001,144.60707,186.80237,136.49052,186.17036,126.72654z"/>
	<path class="st92" d="M104.81711,153.51201h-5.1134c-5.82923,0-10.57149-4.74268-10.57149-10.5719
		c0-5.82924,4.74226-10.57109,10.57149-10.57109c0.85217,0,1.54277,0.6902,1.54277,1.54236
		c0,0.85217-0.69061,1.54236-1.54277,1.54236c-4.12775,0-7.48595,3.3582-7.48595,7.48637c0,4.12816,3.3582,7.48717,7.48595,7.48717
		h5.1134c0.85217,0,1.54277,0.6902,1.54277,1.54236C106.35988,152.82181,105.66927,153.51201,104.81711,153.51201z"/>
	<path class="st92" d="M115.09682,181.63347L115.09682,181.63347H94.39985c-0.85217,0-1.54277-0.6902-1.54277-1.54236
		c0-0.85217,0.69061-1.54237,1.54277-1.54237h20.67743c2.05269,0,3.72243-1.67096,3.72243-3.72363
		c0-0.99379-0.38702-1.92899-1.09023-2.6322c-0.60229-0.60229-0.60229-1.5798,0.0004-2.1821
		c0.6027-0.60066,1.5798-0.60147,2.18169,0.00082c1.28557,1.28598,1.99368,2.99519,1.99368,4.81348
		C121.88525,178.57317,118.84203,181.6237,115.09682,181.63347L115.09682,181.63347z"/>
	<path id="XMLID_455_" class="st77" d="M175.9326,64.50024c0-30.65626-33.74815-56.23965-75.3786-56.23965
		S25.1754,33.84398,25.1754,64.50024c0,25.12637,3.51412,37.15777,3.51412,37.15777S83.59018,69.93558,100.554,69.93558
		c19.93417,0,71.86449,31.72243,71.86449,31.72243S175.9326,79.28128,175.9326,64.50024z"/>
	<path id="XMLID_454_" class="st77" d="M167.67816,64.50024c0-30.65626-32.80788-56.23965-73.27842-56.23965
		S21.12132,33.84398,21.12132,64.50024c0,25.12637,1.27629,37.15777,1.27629,37.15777s55.51094-31.72243,72.00213-31.72243
		c19.37875,0,69.86221,28.49625,69.86221,28.49625S167.67816,79.28128,167.67816,64.50024z"/>
	<polygon id="XMLID_453_" class="st77" points="172.41783,61.77398 28.64845,61.77398 28.64845,101.658 50.72129,101.658 
		55.08748,87.80448 59.72863,96.88277 124.96172,96.88277 130.55455,83.74232 136.96948,101.658 145.97763,101.658 
		150.89081,91.88152 156.89526,101.658 172.41783,101.658 	"/>
	<path id="XMLID_451_" class="st74" d="M110.79083,25.98026c0,0,14.62489,1.66689,21.11395,6.38975
		c6.48907,4.72286,16.66891,18.05799,16.66891,18.05799"/>
	<path id="XMLID_450_" class="st74" d="M83.87528,39.54676c0,0-8.51739,12.00499-9.3298,19.98957s2.32687,24.46486,2.32687,24.46486
		"/>
	<path id="XMLID_482_" class="st74" d="M114.33592,45.70571c0,0-5.63009,7.93544-6.16711,13.21333
		s1.53809,16.17154,1.53809,16.17154"/>
	<g id="XMLID_448_">
		<path id="XMLID_449_" class="st74" d="M105.79594,8.26055c-1.03204,0-2.05533,0.02777-3.07719,0.06074
			c39.04173,1.25841,72.93929,30.62333,72.93929,53.45268c0,11.24033-1.39627,33.03959-2.34285,39.88408
			c3.52383,2.11017,5.75906,0,5.75906,0s0-22.37678,0-37.15782C179.07425,33.84394,146.26648,8.26055,105.79594,8.26055z"/>
	</g>
	<path class="st92" d="M31.63464,136.33359c-4.98684,0-9.04378-4.05655-9.04378-9.04338c0-4.98684,4.05694-9.04337,9.04378-9.04337
		c0.85217,0,1.54277,0.69019,1.54277,1.54236s-0.69061,1.54237-1.54277,1.54237c-3.28535,0-5.95824,2.67289-5.95824,5.95865
		c0,3.28577,2.67289,5.95865,5.95824,5.95865c0.85217,0,1.54277,0.6902,1.54277,1.54236
		C33.17741,135.64339,32.4868,136.33359,31.63464,136.33359z"/>
	<g id="XMLID_444_">
		<circle id="XMLID_446_" cx="65.68262" cy="116.82593" r="7.55259"/>
		<circle id="XMLID_445_" class="st4" cx="63.33057" cy="114.60132" r="2.28818"/>
	</g>
	<g id="XMLID_441_">
		<circle id="XMLID_443_" cx="135.42529" cy="116.82593" r="7.55259"/>
		<circle id="XMLID_442_" class="st4" cx="133.07324" cy="114.60132" r="2.28818"/>
	</g>
</g>
<g>
	<path class="st98" d="M113.93414,7H85.99092C48.9441,7,18.5,36.85728,18.5,73.90329V90h164V73.90329
		C182.5,36.85728,150.98015,7,113.93414,7z M127.5,78h-54v-5.41362C73.5,56.63534,83.84382,45,95.77658,45h9.00105
		C116.7104,45,127.5,56.63534,127.5,72.58638V78z"/>
	<g>
		<path class="st99" d="M113.93414,7H86.74297C123.78899,7,155.5,36.85728,155.5,73.90329V90h27V73.90329
			C182.5,36.85728,150.98015,7,113.93414,7z"/>
	</g>
	<rect x="100.42659" y="78.17638" class="st100" width="26.67026" height="11.66824"/>
	<path class="st98" d="M86.89461,89.84457h15.01026c3.21982,0,5.83-2.61018,5.83-5.83v-0.00824
		c0-3.21982-2.61018-5.82999-5.83-5.82999H86.89461c-3.21982,0-5.83,2.61018-5.83,5.82999v0.00824
		C81.06461,87.23438,83.67479,89.84457,86.89461,89.84457z"/>
</g>
<path class="st100" d="M102.19478,85.41441h-0.00643c-0.77551,0-1.41-0.6345-1.41-1.41v-0.00644c0-0.7755,0.6345-1.41,1.41-1.41
	h0.00643c0.7755,0,1.41,0.6345,1.41,1.41v0.00644C103.60478,84.77991,102.97028,85.41441,102.19478,85.41441z"/>
<path class="st98" d="M112.09792,85.41441h-0.00643c-0.77551,0-1.41-0.6345-1.41-1.41v-0.00644c0-0.7755,0.6345-1.41,1.41-1.41
	h0.00643c0.77551,0,1.41,0.6345,1.41,1.41v0.00644C113.50792,84.77991,112.87342,85.41441,112.09792,85.41441z"/>
<path class="st98" d="M118.76548,85.41441h-0.00643c-0.7755,0-1.41-0.6345-1.41-1.41v-0.00644c0-0.7755,0.63451-1.41,1.41-1.41
	h0.00643c0.77551,0,1.41,0.6345,1.41,1.41v0.00644C120.17548,84.77991,119.54099,85.41441,118.76548,85.41441z"/>
<path class="st100" d="M95.52721,85.41441h-0.00644c-0.7755,0-1.41-0.6345-1.41-1.41v-0.00644c0-0.7755,0.6345-1.41,1.41-1.41
	h0.00643c0.7755,0,1.41,0.6345,1.41,1.41v0.00644C96.93721,84.77991,96.30271,85.41441,95.52721,85.41441z"/>
<path class="st100" d="M88.85965,85.41441h-0.00644c-0.7755,0-1.41-0.6345-1.41-1.41v-0.00644c0-0.7755,0.6345-1.41,1.41-1.41
	h0.00644c0.7755,0,1.41,0.6345,1.41,1.41v0.00644C90.26965,84.77991,89.63515,85.41441,88.85965,85.41441z"/>
<path class="st100" d="M82.19209,85.41441h-0.00644c-0.7755,0-1.41-0.6345-1.41-1.41v-0.00644c0-0.7755,0.6345-1.41,1.41-1.41
	h0.00644c0.7755,0,1.41,0.6345,1.41,1.41v0.00644C83.60208,84.77991,82.96758,85.41441,82.19209,85.41441z"/>
<g>
	<path class="st100" d="M27.42793,75.51728c-0.0411,0-0.08302-0.00326-0.12494-0.00977
		c-0.45538-0.06837-0.76915-0.49242-0.70119-0.9482c0,0,0.12738-0.85054,0.4269-2.3579
		c0.08994-0.4509,0.52741-0.7431,0.98076-0.6552c0.45172,0.08953,0.74514,0.52904,0.6552,0.98076
		c-0.28772,1.44714-0.41143,2.26838-0.41306,2.27977C28.18935,75.2202,27.83367,75.51728,27.42793,75.51728z"/>
	<path class="st100" d="M28.84048,68.76832c-0.06633,0-0.13348-0.00813-0.20063-0.02441
		c-0.44724-0.11069-0.72031-0.56242-0.61003-1.01006c0.32841-1.32993,0.72194-2.81695,1.18913-4.42687
		c0.1286-0.44277,0.59049-0.69834,1.03326-0.56892c0.44236,0.12778,0.69671,0.5909,0.56852,1.03286
		c-0.45986,1.58713-0.84769,3.05298-1.17122,4.36338C29.5555,68.51438,29.21488,68.76832,28.84048,68.76832z M31.37093,60.02935
		c-0.08709,0-0.17581-0.01384-0.2633-0.04314c-0.43707-0.14569-0.67351-0.61776-0.52782-1.05483
		c0.46189-1.38772,0.9714-2.83242,1.5326-4.3178c0.16278-0.43137,0.64462-0.6495,1.07477-0.48591
		c0.43097,0.16278,0.64828,0.64462,0.4855,1.07518c-0.55305,1.46423-1.05524,2.88776-1.51062,4.25594
		C32.04566,59.80797,31.7205,60.02935,31.37093,60.02935z M34.58832,51.52316c-0.10947,0-0.22016-0.02198-0.32719-0.06755
		c-0.42364-0.18069-0.6202-0.67067-0.43951-1.09471c0.58764-1.3747,1.21883-2.77056,1.8956-4.17455
		c0.20022-0.41428,0.69915-0.58765,1.11343-0.38905c0.41469,0.20023,0.58886,0.69834,0.38905,1.11343
		c-0.66537,1.38121-1.28598,2.75265-1.86386,4.10619C35.22033,51.33352,34.91226,51.52316,34.58832,51.52316z M38.5423,43.33521
		c-0.1347,0-0.27103-0.03255-0.398-0.10174c-0.40451-0.22057-0.55387-0.72682-0.3337-1.13134
		c0.73903-1.3576,1.51347-2.69486,2.30133-3.97352c0.24173-0.39231,0.75572-0.51521,1.14762-0.27185
		c0.3923,0.24173,0.51398,0.75531,0.27266,1.14761c-0.77281,1.25343-1.53178,2.56382-2.25657,3.89538
		C39.12425,43.17731,38.83816,43.33521,38.5423,43.33521z M43.31834,35.60304c-0.16523,0-0.33248-0.04965-0.47817-0.15139
		c-0.37684-0.26452-0.46841-0.78461-0.20388-1.16145c0.89082-1.27052,1.8195-2.50766,2.76119-3.67888
		c0.28894-0.35975,0.81432-0.41591,1.17244-0.12778c0.35893,0.28894,0.41591,0.81391,0.12738,1.17285
		c-0.91891,1.14273-1.82561,2.35139-2.69527,3.59098C43.83965,35.47933,43.58123,35.60304,43.31834,35.60304z M49.01654,28.52771
		c-0.20348,0-0.40696-0.07407-0.5677-0.22301c-0.33737-0.31336-0.3569-0.84159-0.04314-1.17854
		c1.05686-1.13866,2.15524-2.23256,3.26419-3.25158c0.3394-0.31254,0.86723-0.28975,1.17855,0.04965
		c0.31173,0.33859,0.28934,0.866-0.04965,1.17773c-1.07681,0.99053-2.14384,2.05269-3.17141,3.15879
		C49.46338,28.43818,49.23996,28.52771,49.01654,28.52771z M55.70445,22.39081c-0.24906,0-0.49567-0.11151-0.66008-0.32394
		c-0.28162-0.36463-0.21487-0.88798,0.14935-1.16959c1.22412-0.94739,2.49464-1.84107,3.77655-2.65661
		c0.38864-0.24824,0.90385-0.13348,1.15128,0.25557c0.24743,0.38824,0.13267,0.90425-0.25597,1.15087
		c-1.23877,0.78868-2.46737,1.65306-3.65121,2.5687C56.06257,22.33384,55.8827,22.39081,55.70445,22.39081z M63.3597,17.52444
		c-0.30399,0-0.5966-0.16685-0.74392-0.45579c-0.20918-0.41021-0.04599-0.9124,0.36464-1.12157
		c1.36777-0.69671,2.78561-1.334,4.21443-1.89316c0.42934-0.16848,0.9128,0.04395,1.08047,0.47207
		c0.16808,0.42893-0.04354,0.91321-0.47247,1.08088c-1.37836,0.53962-2.74614,1.15413-4.06549,1.82642
		C63.61608,17.49513,63.48708,17.52444,63.3597,17.52444z"/>
	<path class="st100" d="M71.81787,14.2167c-0.36423,0-0.69875-0.2401-0.80252-0.60799
		c-0.12453-0.44358,0.13348-0.90426,0.57666-1.02878c0.76466-0.21569,1.54195-0.41347,2.33064-0.59334
		c0.44846-0.0993,0.89571,0.17825,0.99826,0.62753c0.10255,0.44928-0.17865,0.89612-0.62793,0.99867
		c-0.76101,0.17336-1.51062,0.36463-2.24844,0.57218C71.96885,14.20612,71.89275,14.2167,71.81787,14.2167z"/>
</g>
<g>
	<path class="st100" d="M172.45317,75.51728c-0.40614,0-0.76181-0.2979-0.82367-0.71136
		c-0.00163-0.01139-0.12453-0.83263-0.41307-2.27895c-0.08994-0.45172,0.20308-0.89042,0.6548-0.98076
		c0.45457-0.08383,0.89082,0.20348,0.98117,0.6552c0.30034,1.50736,0.4269,2.35872,0.4269,2.35872
		c0.06755,0.45579-0.24661,0.87984-0.702,0.94739C172.53539,75.51402,172.49428,75.51728,172.45317,75.51728z"/>
	<path class="st100" d="M171.04144,68.76832c-0.37439,0-0.71501-0.25394-0.80862-0.63403
		c-0.32434-1.3104-0.71216-2.77625-1.17203-4.36338c-0.12819-0.44196,0.12616-0.90507,0.56851-1.03286
		c0.44359-0.12941,0.90508,0.12616,1.03326,0.56892c0.46719,1.60992,0.86072,3.09694,1.18913,4.42687
		c0.11069,0.44684-0.16197,0.89937-0.60922,1.01006C171.17534,68.76019,171.10779,68.76832,171.04144,68.76832z M168.51059,60.02935
		c-0.34958,0-0.67473-0.22138-0.79112-0.57055c-0.45538-1.36818-0.95757-2.79172-1.51062-4.25594
		c-0.16278-0.43056,0.05453-0.9124,0.4855-1.07518c0.42934-0.16359,0.91199,0.05453,1.07477,0.48591
		c0.56119,1.48539,1.07069,2.93008,1.53259,4.3178c0.14569,0.43707-0.09076,0.90914-0.52782,1.05483
		C168.68639,60.01551,168.59767,60.02935,168.51059,60.02935z M165.2932,51.52316c-0.32394,0-0.632-0.18964-0.76752-0.50625
		c-0.57788-1.35354-1.19849-2.72498-1.86386-4.10619c-0.19981-0.4151-0.02563-0.91321,0.38905-1.11343
		c0.41508-0.19859,0.9136-0.02523,1.11343,0.38905c0.67676,1.404,1.30795,2.79985,1.8956,4.17455
		c0.18068,0.42405-0.01588,0.91402-0.43951,1.09471C165.51376,51.50118,165.40266,51.52316,165.2932,51.52316z M161.33961,43.33521
		c-0.29585,0-0.58194-0.1579-0.73334-0.43544c-0.72478-1.33156-1.48375-2.64196-2.25656-3.89538
		c-0.24133-0.3923-0.11964-0.90588,0.27266-1.14761c0.3923-0.24336,0.90547-0.12046,1.14761,0.27185
		c0.78787,1.27866,1.5623,2.61591,2.30133,3.97352c0.22017,0.40451,0.07082,0.91077-0.33369,1.13134
		C161.61066,43.30265,161.47432,43.33521,161.33961,43.33521z M156.56358,35.60304c-0.26289,0-0.52132-0.12371-0.68369-0.35568
		c-0.86966-1.23959-1.77637-2.44825-2.69527-3.59098c-0.28853-0.35893-0.23157-0.88391,0.12738-1.17285
		c0.35811-0.28812,0.8839-0.23196,1.17244,0.12778c0.9417,1.17122,1.87036,2.40837,2.76118,3.67888
		c0.26453,0.37684,0.17296,0.89693-0.20387,1.16145C156.89607,35.55339,156.72881,35.60304,156.56358,35.60304z M150.86458,28.52771
		c-0.22342,0-0.44684-0.08953-0.61084-0.26696c-1.02757-1.10611-2.0946-2.16826-3.17142-3.15879
		c-0.33899-0.31173-0.36137-0.83914-0.04964-1.17773c0.31172-0.33859,0.83914-0.36138,1.17854-0.04965
		c1.10895,1.01902,2.20732,2.11292,3.26419,3.25158c0.31377,0.33696,0.29422,0.86519-0.04314,1.17854
		C151.27153,28.45364,151.06805,28.52771,150.86458,28.52771z M144.17706,22.39081c-0.17824,0-0.35812-0.05697-0.50992-0.17499
		c-1.18382-0.91565-2.41243-1.78003-3.6512-2.5687c-0.38864-0.24662-0.5034-0.76264-0.25598-1.15087
		c0.24744-0.38905,0.76305-0.50381,1.15128-0.25557c1.28192,0.81554,2.55243,1.70922,3.77655,2.65661
		c0.36423,0.28161,0.43097,0.80496,0.14935,1.16959C144.67274,22.27931,144.42613,22.39081,144.17706,22.39081z M136.52182,17.52444
		c-0.12738,0-0.25638-0.0293-0.37766-0.09116c-1.31935-0.67229-2.68713-1.28679-4.06549-1.82642
		c-0.42892-0.16767-0.64055-0.65194-0.47247-1.08088c0.16766-0.42812,0.65154-0.63973,1.08046-0.47207
		c1.42883,0.55916,2.84666,1.19645,4.21445,1.89316c0.41061,0.20918,0.57381,0.71136,0.36462,1.12157
		C137.11842,17.35758,136.82541,17.52444,136.52182,17.52444z"/>
	<path class="st100" d="M128.06325,14.2167c-0.07488,0-0.15099-0.01058-0.22668-0.03174
		c-0.737-0.20755-1.48661-0.39882-2.24844-0.57218c-0.44928-0.10255-0.73008-0.54939-0.62793-0.99786
		c0.10214-0.45009,0.55061-0.73333,0.99826-0.62834c0.7895,0.17988,1.56678,0.37766,2.33064,0.59334
		c0.44318,0.12453,0.70158,0.5852,0.57625,1.02878C128.76198,13.97659,128.42747,14.2167,128.06325,14.2167z"/>
</g>
<path class="st101" d="M97.5,39.00438c-0.46027,0-0.5-0.37277-0.5-0.83344v-5.00068c0-0.46067,0.03973-0.83345,0.5-0.83345
	s0.5,0.37277,0.5,0.83345v5.00068C98,38.63161,97.96027,39.00438,97.5,39.00438z M97.5,29.00303c-0.46027,0-0.5-0.37277-0.5-0.83344
	v-5.00068c0-0.46067,0.03973-0.83344,0.5-0.83344s0.5,0.37277,0.5,0.83344v5.00068C98,28.63026,97.96027,29.00303,97.5,29.00303z
	 M97.5,19.00168c-0.46027,0-0.5-0.37277-0.5-0.83344v-5.00067c0-0.46067,0.03973-0.83345,0.5-0.83345s0.5,0.37277,0.5,0.83345
	v5.00067C98,18.62891,97.96027,19.00168,97.5,19.00168z"/>
</svg>
